<svg preserveAspectRatio="none" width="100%" height="100%" overflow="visible" style="display: block;" viewBox="0 0 13.4193 10.2283" fill="none" xmlns="http://www.w3.org/2000/svg">
<path id="Arrow 1" d="M0.390798 8.77016C0.0170912 8.98592 -0.11095 9.46378 0.10481 9.83749C0.320569 10.2112 0.798427 10.3392 1.17213 10.1235L0.781466 9.44682L0.390798 8.77016ZM13.3925 2.80377C13.5042 2.38696 13.2569 1.95852 12.84 1.84684L6.04764 0.0268173C5.63082 -0.0848682 5.20238 0.162489 5.0907 0.579305C4.97901 0.996121 5.22637 1.42456 5.64319 1.53624L11.6809 3.15404L10.0631 9.19173C9.9514 9.60855 10.1988 10.037 10.6156 10.1487C11.0324 10.2604 11.4608 10.013 11.5725 9.59618L13.3925 2.80377ZM0.781466 9.44682L1.17213 10.1235L13.0285 3.27821L12.6378 2.60155L12.2472 1.92489L0.390798 8.77016L0.781466 9.44682Z" fill="var(--stroke-0, #FAFAFA)"/>
</svg>
