<svg width="16" height="12" viewBox="0 0 16 12" fill="none" xmlns="http://www.w3.org/2000/svg">
<path d="M0.787609 4.90391C0.356102 4.90052 0.00355488 5.24759 0.000171665 5.67909C-0.00321131 6.1106 0.343851 6.46315 0.775358 6.46653L0.781483 5.68522L0.787609 4.90391ZM15.0197 6.34935C15.3273 6.04662 15.3311 5.55193 15.0284 5.24441L10.0951 0.233193C9.79242 -0.07432 9.29772 -0.0781986 8.99021 0.22453C8.68269 0.527259 8.67882 1.02196 8.98155 1.32947L13.3667 5.78389L8.91224 10.169C8.60473 10.4717 8.60085 10.9664 8.90358 11.2739C9.20631 11.5815 9.70101 11.5853 10.0085 11.2826L15.0197 6.34935ZM0.781483 5.68522L0.775358 6.46653L14.4655 6.57386L14.4716 5.79255L14.4777 5.01124L0.787609 4.90391L0.781483 5.68522Z" fill="#F04769"/>
</svg>
