<svg preserveAspectRatio="none" width="100%" height="100%" overflow="visible" style="display: block;" viewBox="0 0 36 36" fill="none" xmlns="http://www.w3.org/2000/svg">
<g id="Plus icon">
<circle id="Ellipse 30" cx="18" cy="18" r="18" fill="var(--fill-0, #FAFAFA)"/>
<path id="-" d="M12.8621 19.7241C11.8337 19.7241 11 18.8905 11 17.8621C11 16.8337 11.8337 16 12.8621 16H24.0345C25.0629 16 25.8966 16.8337 25.8966 17.8621C25.8966 18.8905 25.0629 19.7241 24.0345 19.7241H12.8621Z" fill="var(--fill-0, #828282)"/>
<path id="-_2" d="M20.3101 23.4483C20.3101 24.4767 19.4764 25.3104 18.448 25.3104C17.4197 25.3104 16.586 24.4767 16.586 23.4483V12.2759C16.586 11.2475 17.4197 10.4138 18.448 10.4138C19.4764 10.4138 20.3101 11.2475 20.3101 12.2759V23.4483Z" fill="var(--fill-0, #828282)"/>
</g>
</svg>
