<svg preserveAspectRatio="none" width="100%" height="100%" overflow="visible" style="display: block;" viewBox="0 0 40 40" fill="none" xmlns="http://www.w3.org/2000/svg">
<g id="Frame 689">
<rect width="40" height="40" rx="8" fill="var(--fill-0, #F14D62)" fill-opacity="0.2"/>
<g id="Vector">
<path d="M8.00015 31.0198C8.00015 30.4956 8.41342 30.0707 8.92322 30.0707C9.43302 30.0707 9.84629 30.4956 9.84629 31.0198C9.84629 31.6432 9.84824 32.0153 9.8831 32.2819C9.89908 32.4041 9.9179 32.4653 9.92893 32.4929C9.93149 32.4993 9.93349 32.5035 9.93474 32.506C9.93552 32.5075 9.93611 32.5085 9.93643 32.509C9.93696 32.5093 9.93791 32.51 9.93943 32.5108C9.9418 32.5121 9.94588 32.5141 9.95208 32.5167C9.97889 32.528 10.0384 32.5474 10.1572 32.5638C10.4166 32.5997 10.7785 32.6017 11.3848 32.6017C11.991 32.6017 12.3529 32.5997 12.6122 32.5638C12.7311 32.5474 12.7906 32.528 12.8174 32.5167C12.8236 32.5141 12.8277 32.5121 12.83 32.5108C12.8316 32.51 12.8326 32.5093 12.8331 32.509C12.8334 32.5084 12.834 32.5075 12.8347 32.506C12.836 32.5035 12.838 32.4993 12.8405 32.4929C12.8516 32.4653 12.8704 32.4041 12.8864 32.2819C12.9212 32.0153 12.9232 31.6432 12.9232 31.0198V23.4267C12.9232 22.8034 12.9212 22.4313 12.8864 22.1646C12.8704 22.0424 12.8516 21.9812 12.8405 21.9536C12.838 21.9472 12.836 21.943 12.8347 21.9406C12.8339 21.9391 12.8334 21.9381 12.8331 21.9375C12.8325 21.9372 12.8316 21.9366 12.8301 21.9358C12.8277 21.9345 12.8236 21.9325 12.8174 21.9298C12.7906 21.9185 12.7311 21.8992 12.6122 21.8827C12.3529 21.8469 11.991 21.8448 11.3848 21.8448C10.7785 21.8448 10.4166 21.8469 10.1572 21.8827C10.0384 21.8992 9.97889 21.9185 9.95208 21.9298C9.94589 21.9325 9.94181 21.9345 9.93943 21.9358C9.93793 21.9366 9.93696 21.9372 9.93643 21.9375C9.93611 21.9381 9.93553 21.939 9.93474 21.9406C9.93349 21.943 9.93149 21.9472 9.92893 21.9536C9.9179 21.9812 9.89908 22.0424 9.8831 22.1646C9.84824 22.4313 9.84629 22.8034 9.84629 23.4267V25.9578C9.84628 26.482 9.43301 26.9069 8.92322 26.9069C8.41342 26.9069 8.00015 26.482 8.00015 25.9578V23.4267C8.00015 22.857 7.99819 22.3342 8.05344 21.9117C8.11226 21.4618 8.25065 20.9863 8.63097 20.5952L8.63101 20.5952C9.01134 20.2041 9.47376 20.0618 9.91126 20.0014C10.3222 19.9445 10.8307 19.9466 11.3848 19.9466C11.9388 19.9466 12.4473 19.9446 12.8582 20.0014C13.2889 20.0609 13.7437 20.1997 14.1206 20.5771L14.1385 20.5952C14.5188 20.9863 14.6572 21.4618 14.716 21.9117C14.7644 22.2814 14.7689 22.7279 14.7693 23.2154V31.2311C14.7689 31.7187 14.7644 32.1651 14.716 32.5349C14.6581 32.9777 14.5231 33.4454 14.1562 33.8329L14.1385 33.8513C13.7582 34.2424 13.2957 34.3847 12.8582 34.4452C12.4473 34.502 11.9388 34.5 11.3848 34.5C10.8307 34.5 10.3222 34.502 9.91126 34.4452C9.47375 34.3847 9.01131 34.2424 8.63097 33.8513C8.25065 33.4602 8.11226 32.9847 8.05344 32.5349C7.99819 32.1123 8.00015 31.5895 8.00015 31.0198ZM21.5385 18.3647C21.5385 17.7413 21.5366 17.3692 21.5017 17.1025C21.4857 16.9803 21.4669 16.9191 21.4559 16.8916C21.4533 16.8852 21.4513 16.881 21.4501 16.8786C21.4493 16.877 21.4487 16.876 21.4484 16.8755C21.4479 16.8752 21.4469 16.8746 21.4454 16.8737C21.443 16.8725 21.4389 16.8704 21.4327 16.8678C21.4059 16.8564 21.3464 16.8371 21.2275 16.8206C20.9682 16.7848 20.6063 16.7828 20.0001 16.7828C19.3938 16.7828 19.0319 16.7848 18.7726 16.8206C18.6538 16.8371 18.5942 16.8564 18.5674 16.8678C18.5612 16.8704 18.5571 16.8725 18.5547 16.8737C18.5532 16.8745 18.5523 16.8752 18.5518 16.8755C18.5514 16.876 18.5508 16.877 18.5501 16.8786C18.5488 16.881 18.5468 16.8852 18.5443 16.8916C18.5333 16.9191 18.5144 16.9803 18.4985 17.1025C18.4636 17.3692 18.4616 17.7413 18.4616 18.3647V31.0198C18.4616 31.6432 18.4636 32.0153 18.4985 32.2819C18.5144 32.4041 18.5333 32.4653 18.5443 32.4929C18.5468 32.4993 18.5488 32.5035 18.5501 32.5059C18.5508 32.5075 18.5514 32.5085 18.5518 32.509C18.5523 32.5093 18.5532 32.51 18.5548 32.5108C18.5572 32.5121 18.5612 32.5141 18.5674 32.5167C18.5942 32.528 18.6538 32.5474 18.7726 32.5638C19.0319 32.5997 19.3938 32.6017 20.0001 32.6017C20.6063 32.6017 20.9682 32.5997 21.2275 32.5638C21.3464 32.5474 21.4059 32.528 21.4327 32.5167C21.4389 32.5141 21.443 32.5121 21.4454 32.5108C21.4469 32.51 21.4478 32.5093 21.4484 32.509C21.4487 32.5085 21.4493 32.5075 21.4501 32.5059C21.4513 32.5035 21.4533 32.4993 21.4559 32.4929C21.4669 32.4653 21.4857 32.4041 21.5017 32.2819C21.5366 32.0153 21.5385 31.6432 21.5385 31.0198V18.3647ZM30.1538 18.3647V14.5682C30.1538 13.9448 30.1519 13.5727 30.117 13.306C30.1011 13.1838 30.0822 13.1226 30.0712 13.095C30.0687 13.0886 30.0666 13.0845 30.0654 13.082C30.0646 13.0804 30.064 13.0795 30.0637 13.0789C30.0631 13.0786 30.0622 13.078 30.0607 13.0772C30.0583 13.0759 30.0543 13.0739 30.0481 13.0712C30.0212 13.0599 29.9617 13.0405 29.8429 13.0241C29.5835 12.9883 29.2216 12.9862 28.6154 12.9862C28.0091 12.9863 27.6473 12.9883 27.3879 13.0241C27.2691 13.0405 27.2096 13.0599 27.1828 13.0712C27.1765 13.0739 27.1725 13.0759 27.1701 13.0772C27.1685 13.078 27.1675 13.0786 27.167 13.0789C27.1667 13.0795 27.1662 13.0805 27.1654 13.082C27.1642 13.0845 27.1622 13.0887 27.1596 13.095C27.1486 13.1226 27.1298 13.1838 27.1138 13.306C27.0789 13.5727 27.077 13.9448 27.077 14.5682V31.0198C27.077 31.6432 27.0789 32.0153 27.1138 32.2819C27.1298 32.4041 27.1486 32.4653 27.1596 32.4929C27.1622 32.4993 27.1642 32.5035 27.1654 32.5059C27.1662 32.5075 27.1667 32.5084 27.1671 32.509C27.1676 32.5093 27.1685 32.5099 27.1701 32.5108C27.1725 32.5121 27.1766 32.5141 27.1828 32.5167C27.2096 32.528 27.2691 32.5474 27.3879 32.5638C27.6473 32.5997 28.0091 32.6017 28.6154 32.6017C29.2217 32.6017 29.5835 32.5997 29.8429 32.5638C29.9617 32.5474 30.0212 32.528 30.048 32.5167C30.0542 32.5141 30.0583 32.5121 30.0607 32.5108C30.0622 32.51 30.0631 32.5094 30.0637 32.509C30.064 32.5085 30.0646 32.5075 30.0654 32.5059C30.0666 32.5035 30.0687 32.4993 30.0712 32.4929C30.0822 32.4653 30.1011 32.4041 30.117 32.2819C30.1519 32.0153 30.1538 31.6432 30.1538 31.0198V23.4267C30.1538 22.9025 30.5671 22.4776 31.0769 22.4776C31.5867 22.4776 32 22.9025 32 23.4267V31.0198C32 31.5895 32.0019 32.1123 31.9467 32.5349C31.8879 32.9847 31.7495 33.4602 31.3691 33.8513C30.9888 34.2424 30.5264 34.3847 30.0889 34.4452C29.6779 34.502 29.1695 34.5 28.6154 34.5C28.0613 34.5 27.5529 34.502 27.1419 34.4452C26.7044 34.3847 26.242 34.2424 25.8616 33.8513C25.4813 33.4602 25.3429 32.9847 25.2841 32.5349C25.2358 32.1651 25.2312 31.7187 25.2308 31.2311V14.3568C25.2312 13.8693 25.2358 13.4228 25.2841 13.0531C25.3429 12.6032 25.4813 12.1277 25.8617 11.7366C26.242 11.3456 26.7044 11.2033 27.1419 11.1428C27.5529 11.086 28.0613 11.088 28.6154 11.088C29.1695 11.088 29.6779 11.086 30.0889 11.1428C30.5195 11.2023 30.9744 11.3411 31.3512 11.7185L31.3691 11.7366L31.3868 11.755C31.7538 12.1425 31.8888 12.6102 31.9467 13.0531C32.002 13.4756 32 13.9984 32 14.5682V18.3647C32 18.8889 31.5867 19.3138 31.0769 19.3138C30.5671 19.3138 30.1539 18.8889 30.1538 18.3647ZM23.3847 31.0198C23.3847 31.5895 23.3866 32.1123 23.3314 32.5349C23.2726 32.9847 23.1341 33.4602 22.7538 33.8513C22.3735 34.2424 21.911 34.3847 21.4735 34.4452C21.0626 34.502 20.5541 34.5 20.0001 34.5C19.446 34.5 18.9376 34.502 18.5266 34.4452C18.0891 34.3847 17.6267 34.2424 17.2463 33.8513C16.866 33.4602 16.7276 32.9847 16.6688 32.5349C16.6135 32.1123 16.6155 31.5895 16.6155 31.0198V18.3647C16.6155 17.795 16.6135 17.2722 16.6688 16.8496C16.7276 16.3997 16.866 15.9242 17.2463 15.5332C17.6267 15.1421 18.0891 14.9998 18.5266 14.9393C18.9376 14.8825 19.446 14.8845 20.0001 14.8845C20.5542 14.8845 21.0626 14.8825 21.4735 14.9393C21.9042 14.9989 22.359 15.1377 22.7359 15.515L22.7538 15.5332L22.7714 15.5515C23.1384 15.9391 23.2735 16.4068 23.3314 16.8496C23.3866 17.2722 23.3847 17.795 23.3847 18.3647V31.0198Z" fill="var(--fill-0, #F14D62)"/>
<path d="M22.1872 7.06097C22.6273 6.7963 23.1927 6.94854 23.4501 7.401C23.7075 7.85347 23.5594 8.43483 23.1194 8.6995L9.38929 16.9577C8.94925 17.2224 8.38386 17.0701 8.12645 16.6177C7.86905 16.1652 8.01711 15.5838 8.45715 15.3192L22.1872 7.06097Z" fill="var(--fill-0, #F14D62)"/>
<path d="M25.5555 5.93382C25.7346 6.21857 25.7523 6.57992 25.602 6.88174L22.9376 12.2324C22.7052 12.699 22.149 12.8835 21.6952 12.6446C21.2414 12.4057 21.062 11.8338 21.2943 11.3672L23.2301 7.47984L18.9881 7.69975C18.4789 7.72614 18.0454 7.32315 18.0197 6.79963C17.994 6.2761 18.386 5.83029 18.8951 5.8039L24.7339 5.50122L24.7647 5.50014C25.0827 5.49456 25.3821 5.65796 25.5555 5.93382Z" fill="var(--fill-0, #F14D62)"/>
</g>
</g>
</svg>
