<svg preserveAspectRatio="none" width="100%" height="100%" overflow="visible" style="display: block;" viewBox="0 0 28.0001 28" fill="none" xmlns="http://www.w3.org/2000/svg">
<g id="Group 23">
<path id="Vector" d="M2.6835e-07 12.0465C2.6835e-07 12.5859 0.43731 13.0233 0.976748 13.0233C1.51619 13.0233 1.9535 12.5859 1.9535 12.0465H2.6835e-07ZM2.37481 18.7228C2.16838 18.2244 1.59701 17.9877 1.09863 18.1942C0.600257 18.4006 0.363585 18.9719 0.570017 19.4703L2.37481 18.7228ZM16.2558 26.7234L16.9618 25.5307L15.2806 24.5356L14.5746 25.7284L16.2558 26.7234ZM11.0383 25.5307L11.7443 26.7234L13.4253 25.7284L12.7193 24.5356L11.0383 25.5307ZM14.5746 25.7284C14.3237 26.1524 13.6764 26.1524 13.4253 25.7284L11.7443 26.7234C12.7518 28.4255 15.2483 28.4255 16.2558 26.7234L14.5746 25.7284ZM12.0466 1.95349H15.9535V2.6835e-07H12.0466V1.95349ZM26.0466 12.0465V13.3489H28.0001V12.0465H26.0466ZM8.53352 22.1286C6.89852 22.1004 6.04181 21.9964 5.37028 21.7183L4.62271 23.523C5.67105 23.9572 6.86508 24.0536 8.49987 24.0817L8.53352 22.1286ZM0.570017 19.4703C1.33004 21.3052 2.78785 22.763 4.62271 23.523L5.37028 21.7183C4.01407 21.1564 2.93657 20.079 2.37481 18.7228L0.570017 19.4703ZM26.0466 13.3489C26.0466 14.8792 26.0461 15.9781 25.987 16.8452C25.9284 17.7036 25.8156 18.2633 25.6253 18.7228L27.4301 19.4703C27.7355 18.7332 27.8705 17.936 27.9359 16.9782C28.0006 16.0292 28.0001 14.8525 28.0001 13.3489H26.0466ZM19.5002 24.0817C21.135 24.0536 22.3291 23.9572 23.3773 23.523L22.6298 21.7183C21.9583 21.9964 21.1015 22.1004 19.4666 22.1286L19.5002 24.0817ZM25.6253 18.7228C25.0635 20.079 23.9861 21.1564 22.6298 21.7183L23.3773 23.523C25.2122 22.763 26.67 21.3052 27.4301 19.4703L25.6253 18.7228ZM15.9535 1.95349C18.104 1.95349 19.6483 1.95452 20.8528 2.06905C22.0428 2.18219 22.8 2.39919 23.4037 2.76911L24.4244 1.10349C23.4621 0.513859 22.3706 0.251076 21.0377 0.124333C19.7192 -0.00102862 18.0662 2.6835e-07 15.9535 2.6835e-07V1.95349ZM28.0001 12.0465C28.0001 9.9339 28.0011 8.28085 27.8757 6.96238C27.749 5.62939 27.4862 4.53789 26.8966 3.57571L25.231 4.59641C25.6009 5.20007 25.8179 5.95729 25.9311 7.14729C26.0456 8.35182 26.0466 9.89607 26.0466 12.0465H28.0001ZM23.4037 2.76911C24.1485 3.2255 24.7746 3.85166 25.231 4.59641L26.8966 3.57571C26.2792 2.56811 25.432 1.72095 24.4244 1.10349L23.4037 2.76911ZM12.0466 2.6835e-07C9.93393 2.6835e-07 8.28087 -0.00102862 6.9624 0.124333C5.6294 0.251076 4.5379 0.513859 3.57572 1.10349L4.59642 2.76911C5.20009 2.39919 5.9573 2.18219 7.14731 2.06905C8.35184 1.95452 9.89609 1.95349 12.0466 1.95349V2.6835e-07ZM1.9535 12.0465C1.9535 9.89607 1.95452 8.35182 2.06905 7.14729C2.1822 5.95729 2.39919 5.20007 2.76912 4.59641L1.10349 3.57571C0.513861 4.53789 0.251076 5.62939 0.124334 6.96238C-0.00102863 8.28085 2.6835e-07 9.9339 2.6835e-07 12.0465H1.9535ZM3.57572 1.10349C2.56812 1.72095 1.72095 2.56811 1.10349 3.57571L2.76912 4.59641C3.22551 3.85166 3.85167 3.2255 4.59642 2.76911L3.57572 1.10349ZM12.7193 24.5356C12.455 24.0889 12.2229 23.6947 11.9972 23.385C11.7594 23.0589 11.4868 22.7652 11.1087 22.5452L10.1266 24.234C10.1883 24.2698 10.2724 24.3353 10.4184 24.5356C10.5765 24.7525 10.7551 25.0522 11.0383 25.5307L12.7193 24.5356ZM8.49987 24.0817C9.07171 24.0916 9.43391 24.0989 9.71002 24.1294C9.96802 24.158 10.068 24.1998 10.1266 24.234L11.1087 22.5452C10.7274 22.3234 10.3307 22.2327 9.92502 22.1877C9.53747 22.1449 9.0691 22.1379 8.53352 22.1286L8.49987 24.0817ZM16.9618 25.5307C17.2449 25.0522 17.4235 24.7525 17.5816 24.5356C17.7276 24.3353 17.8117 24.2698 17.8734 24.234L16.8914 22.5452C16.5133 22.7652 16.2406 23.0589 16.0029 23.385C15.7772 23.6947 15.5451 24.0889 15.2806 24.5356L16.9618 25.5307ZM19.4666 22.1286C18.9309 22.1379 18.4626 22.1449 18.075 22.1877C17.6694 22.2327 17.2727 22.3234 16.8914 22.5452L17.8734 24.234C17.932 24.1998 18.0321 24.158 18.2901 24.1294C18.5661 24.0989 18.9283 24.0916 19.5002 24.0817L19.4666 22.1286Z" fill="var(--fill-0, #F14D62)"/>
<path id="Vector_2" d="M8.79049 12.6977H8.80221M13.9881 12.6977H13.9998M19.1974 12.6977H19.2091" stroke="var(--stroke-0, #F14D62)" stroke-width="3.66515" stroke-linecap="round" stroke-linejoin="round"/>
</g>
</svg>
