<svg preserveAspectRatio="none" width="100%" height="100%" overflow="visible" style="display: block;" viewBox="0 0 40 40" fill="none" xmlns="http://www.w3.org/2000/svg">
<g id="Frame 689">
<rect width="40" height="40" rx="8" fill="var(--fill-0, #F14D62)" fill-opacity="0.2"/>
<path id="Vector" d="M31.421 26.9342H8.57904M31.421 26.9342C32.3221 26.9342 33.0525 26.2037 33.0525 25.3026V10.6185C33.0525 9.71742 32.3221 8.98694 31.421 8.98694H26.5263M31.421 26.9342H33.4604C34.5868 26.9342 35.4999 27.8472 35.4999 28.9736C35.4999 30.1 34.5868 31.0131 33.4604 31.0131H20M8.57904 26.9342C7.67796 26.9342 6.94748 26.2037 6.94748 25.3026V10.6185C6.94748 9.71741 7.67796 8.98694 8.57904 8.98694H20M8.57904 26.9342H6.53959C5.41322 26.9342 4.50013 27.8472 4.50013 28.9736C4.50013 30.1 5.41322 31.0131 6.53959 31.0131H11.8422M17.8708 16.0679V14.1421L24.2584 17.83L17.8708 21.5179V19.5432" stroke="var(--stroke-0, #F14D62)" stroke-width="1.95788" stroke-linecap="round" stroke-linejoin="round"/>
</g>
</svg>
