<svg width="717" height="584" viewBox="0 0 717 584" fill="none" xmlns="http://www.w3.org/2000/svg">
<path d="M691.667 291.667C691.667 165.959 691.667 103.105 652.613 64.0523C613.563 25 550.707 25 425 25H291.667C165.959 25 103.105 25 64.0523 64.0523C25 103.105 25 165.959 25 291.667C25 417.373 25 480.23 64.0523 519.28C103.105 558.333 165.959 558.333 291.667 558.333H425C550.707 558.333 613.563 558.333 652.613 519.28C674.387 497.507 684.02 468.337 688.283 425" stroke="#F14D62" stroke-width="50" stroke-linecap="round"/>
<path d="M291.666 425H158.333" stroke="#F14D62" stroke-width="50" stroke-linecap="round"/>
<path d="M425 425H375" stroke="#F14D62" stroke-width="50" stroke-linecap="round"/>
<path d="M25 225H191.667M691.667 225H325" stroke="#F14D62" stroke-width="50" stroke-linecap="round"/>
</svg>
