<svg width="800" height="662" viewBox="0 0 800 662" fill="none" xmlns="http://www.w3.org/2000/svg">
<path d="M697.267 297.244C684.425 297.244 672.511 300.612 661.964 305.495V238.698C661.964 183.181 616.798 138.014 561.28 138.014H494.533C499.416 127.467 502.761 115.553 502.761 102.759C502.761 46.0938 456.667 0 400.002 0C343.336 0 297.242 46.0938 297.242 102.759C297.242 115.553 300.588 127.467 305.47 138.014H238.722C183.205 138.014 138.038 183.18 138.038 238.698V305.495C127.491 300.612 115.577 297.244 102.734 297.244C46.0938 297.244 0 343.338 0 399.978C0 456.667 46.0938 502.761 102.734 502.761C115.577 502.761 127.491 499.392 138.038 494.509V561.281C138.038 616.798 183.203 661.966 238.722 661.966H291.213V661.917L313.186 661.869C342.972 661.869 360.794 650.809 367.581 645.536C388.041 629.716 391.067 610.477 391.067 600.419C391.067 584.941 384.67 570.488 372.073 557.498L371.536 556.302L368.753 554.348C366.995 552.542 361.648 546.17 361.648 536.258C361.648 515.091 378.861 497.878 400.003 497.878C421.145 497.878 438.358 515.091 438.358 536.258C438.358 546.17 433.011 552.542 431.253 554.348L428.47 556.302L427.933 557.498C415.334 570.488 408.939 584.941 408.939 600.419C408.939 610.478 411.967 629.716 432.425 645.536C439.213 650.809 457.034 661.869 486.82 661.869L508.794 661.917V661.966H561.284C616.802 661.966 661.969 616.8 661.969 561.281V494.509C672.516 499.392 684.43 502.761 697.272 502.761C753.912 502.761 800.006 456.667 800.006 399.978C800.002 343.338 753.908 297.244 697.267 297.244ZM697.267 460.77C672.658 460.77 648.805 432.255 648.805 432.255C644.508 428.105 640.528 426.03 636.866 426.03C633.18 426.03 629.786 428.105 626.562 432.255C626.562 432.255 619.947 439.872 619.947 457.206V561.283C619.947 593.705 593.702 619.95 561.28 619.95H530.47L486.817 619.852C466.847 619.852 458.106 612.283 458.106 612.283C453.32 608.572 450.928 604.666 450.928 600.417C450.928 596.194 453.32 591.628 458.106 586.72C458.106 586.72 480.372 568.777 480.372 536.256C480.372 491.872 444.386 455.884 400 455.884C355.614 455.884 319.628 491.87 319.628 536.256C319.628 568.777 341.894 586.72 341.894 586.72C346.68 591.628 349.072 596.194 349.072 600.417C349.072 604.666 346.68 608.572 341.894 612.283C341.894 612.283 333.153 619.852 313.183 619.852L269.53 619.95H238.719C206.297 619.95 180.052 593.705 180.052 561.283V457.206C180.052 439.872 173.436 432.255 173.436 432.255C170.213 428.105 166.82 426.03 163.133 426.03C159.47 426.03 155.491 428.105 151.194 432.255C151.194 432.255 127.341 460.77 102.731 460.77C69.2109 460.77 41.9891 433.573 41.9891 399.98C41.9891 366.434 69.2109 339.238 102.731 339.238C127.341 339.238 151.194 367.753 151.194 367.753C155.491 371.903 159.47 374.003 163.133 374.003C166.819 374.003 170.213 371.903 173.436 367.753C173.436 367.753 180.052 360.161 180.052 342.802V238.7C180.052 206.327 206.297 180.033 238.719 180.033H342.82C360.155 180.033 367.772 173.417 367.772 173.417C376.073 167.02 376.073 159.794 367.772 151.2C367.772 151.2 339.256 127.372 339.256 102.763C339.256 69.1938 366.453 42.0203 399.998 42.0203C433.544 42.0203 460.741 69.1938 460.741 102.763C460.741 127.372 432.225 151.2 432.225 151.2C423.923 159.794 423.923 167.02 432.225 173.417C432.225 173.417 439.842 180.033 457.177 180.033H561.278C593.7 180.033 619.945 206.327 619.945 238.7V342.802C619.945 360.159 626.561 367.753 626.561 367.753C629.784 371.903 633.177 374.003 636.864 374.003C640.527 374.003 644.506 371.903 648.803 367.753C648.803 367.753 672.656 339.238 697.266 339.238C730.786 339.238 758.008 366.434 758.008 399.98C758.009 433.572 730.788 460.77 697.267 460.77Z" fill="#F14D62"/>
</svg>
