<svg width="585" height="601" viewBox="0 0 585 601" fill="none" xmlns="http://www.w3.org/2000/svg">
<path fill-rule="evenodd" clip-rule="evenodd" d="M284.939 231.153C334.827 250.365 375.714 296.015 377.814 352.578C380.802 433.428 298.077 495.415 231.552 561.178C205.477 586.29 169.777 600.59 133.527 600.365C29.5642 598.428 -49.2232 455.053 36.4893 366.115C85.5268 316.465 131.614 254.065 185.627 230.915C189.839 229.103 194.139 227.565 198.477 226.278C198.677 242.315 200.027 262.753 204.664 279.79C195.914 283.328 187.714 288.415 180.502 295.19C124.602 349.078 44.1268 400.853 49.2018 468.828C52.4143 511.965 91.6393 548.978 136.314 548.703C158.277 548.29 179.677 539.403 195.464 524.203C259.052 461.34 351.539 396.528 318.839 322.765C312.402 308.24 301.514 296.515 288.277 288.178C284.789 273.065 281.864 252.228 284.939 231.153ZM299.614 369.215C249.727 350.003 208.839 304.353 206.739 247.778C203.752 166.94 286.477 104.953 353.002 39.1776C379.077 14.0776 414.777 -0.222384 451.027 0.00261576C554.989 1.92762 633.777 145.303 548.064 234.24C499.027 283.89 452.939 346.29 398.927 369.44C394.714 371.253 390.414 372.79 386.077 374.078C385.877 358.04 384.527 337.603 379.889 320.578C388.639 317.04 396.839 311.94 404.052 305.165C459.952 251.278 540.427 199.503 535.352 131.528C532.139 88.4026 492.914 51.3776 448.239 51.6651C426.277 52.0651 404.877 60.9651 389.089 76.1651C325.502 139.015 233.014 203.828 265.714 277.59C272.152 292.128 283.039 303.84 296.277 312.19C299.764 327.29 302.689 348.14 299.614 369.215Z" fill="#F14D62"/>
</svg>
