<svg width="101" height="61" viewBox="0 0 101 61" fill="none" xmlns="http://www.w3.org/2000/svg">
<path d="M45.8831 56.6261C45.6216 57.4507 43.5571 58.1353 39.6856 58.6799C38.6197 58.8316 37.5181 58.9638 36.3808 59.0883C35.4377 59.1894 34.4708 59.2828 33.4802 59.3645C31.3285 59.5473 29.0579 59.6873 26.6725 59.7807C21.8579 59.9752 17.2415 60.0102 12.8232 59.8779C8.40488 59.7496 5.52407 59.3995 4.18472 58.8316C3.39616 58.5204 2.74233 56.4393 2.23512 52.5768C1.71999 48.7181 1.31976 44.202 1.03049 39.0208C0.741226 33.8435 0.570831 28.5651 0.519318 23.1816C0.467804 17.7981 0.519318 13.4143 0.673859 10.0302C0.673859 8.17086 0.832361 6.47491 1.14937 4.93844C1.46638 3.40586 1.94982 2.44118 2.6076 2.0522C3.26539 1.66323 5.57955 1.33259 9.55402 1.04475C13.5245 0.760794 17.8121 0.585755 22.4166 0.523518C26.3634 0.465171 30.0565 0.51574 33.5 0.671332C34.0706 0.694671 34.6373 0.72579 35.196 0.756908C36.6344 0.834704 37.847 0.943614 38.8376 1.06809C40.5415 1.28981 41.5797 1.57766 41.9443 1.93941C42.6536 2.50732 43.0538 4.74784 43.1449 8.65708C43.2361 12.5663 42.9944 15.5187 42.4158 17.5064C42.1266 18.436 40.28 19.0117 36.8722 19.2295C35.4972 19.319 34.031 19.4007 32.4697 19.4746C31.8714 19.5057 31.2572 19.533 30.6311 19.5641C28.844 19.6458 26.9498 19.7197 24.9408 19.7897C24.9408 20.1009 24.9527 20.4626 24.9804 20.8749C25.0082 21.2911 25.0319 21.649 25.0597 21.9602C27.1836 21.9991 29.0262 22.1236 30.5875 22.3297C31.2096 22.4153 31.7882 22.5125 32.3192 22.6214C32.3509 22.6292 32.3865 22.6448 32.4182 22.6642C32.8303 22.8704 33.2424 23.6289 33.6387 24.9242C34.0746 26.3323 34.3757 27.8688 34.5461 29.5336C34.7165 31.1985 34.7125 32.7427 34.5263 34.1625C34.3401 35.5823 33.8804 36.3408 33.1434 36.4458C32.9809 36.4925 32.7788 36.5353 32.5331 36.5819C32.0695 36.6675 31.4593 36.7453 30.7024 36.8153C30.5677 36.827 30.429 36.8387 30.2824 36.8503C28.9034 36.967 27.3659 37.0526 25.6858 37.1032V39.3865C27.4452 39.367 29.1372 39.3359 30.7658 39.297C31.3959 39.2776 32.018 39.262 32.6243 39.2387C34.5659 39.1764 36.4085 39.0947 38.1521 38.9975C41.8611 38.7913 44.0445 39.0364 44.7022 39.7327C45.4115 40.3006 45.9307 42.7667 46.2596 47.1311C46.5884 51.4954 46.4656 54.6578 45.8871 56.6183L45.8831 56.6261Z" fill="#F14D62" stroke="white"/>
<path d="M100.014 12.9403C99.459 14.6985 98.08 18.032 95.8689 22.9526C93.6617 27.8693 91.2406 32.9728 88.6094 38.2668C88.6015 38.2823 88.5936 38.2979 88.5896 38.3134C88.5222 38.4535 88.4549 38.5857 88.3835 38.7219C88.2845 38.9125 88.1894 39.1109 88.0943 39.2976C87.7535 39.9822 87.4087 40.659 87.068 41.3242C84.9797 45.4201 82.9429 49.1893 80.9497 52.6357C78.4771 56.9183 76.7058 59.3106 75.624 59.8007C75.1485 60.0302 74.0746 60.2013 72.3866 60.3064C70.7025 60.4075 68.8955 60.458 66.9618 60.458C65.028 60.458 63.2132 60.3997 61.5172 60.283C59.8212 60.1702 58.7355 60.0068 58.2599 59.8007C57.1821 59.3339 55.395 57.0662 52.8946 52.9858C51.583 50.8425 50.2317 48.5514 48.8528 46.1086C47.6045 43.9031 46.3246 41.5731 45.0249 39.1225C43.2576 35.8006 41.5695 32.5138 39.9647 29.2619C39.0731 27.457 38.2092 25.6638 37.3692 23.8823C37.1631 23.4389 36.9571 23.0071 36.7589 22.5831C34.742 18.2499 33.3749 15.0369 32.6537 12.9442C32.1544 11.4739 32.8716 9.88293 34.8054 8.18309C36.0893 7.04727 37.5356 6.02425 39.1404 5.11015C39.9488 4.64726 40.7968 4.2116 41.6884 3.80707C44.3433 2.59345 46.9388 1.78826 49.4788 1.38761C52.0189 0.986963 53.6277 1.34094 54.3132 2.45342C56.4926 6.09038 58.5849 9.98407 60.586 14.1306C62.5831 18.2732 64.5565 22.3108 66.5021 26.2317C68.4517 21.844 70.4489 17.4525 72.5015 13.0648C74.5541 8.6771 76.3808 5.13738 77.9857 2.45342C78.6435 1.34094 80.2484 0.986963 82.8003 1.38761C84.1158 1.59377 85.4473 1.90884 86.8025 2.33283C87.492 2.54677 88.1894 2.79183 88.8868 3.06411C89.4772 3.29361 90.0716 3.54256 90.666 3.80707C93.3606 5.02068 95.7024 6.47936 97.6877 8.18309C99.6729 9.88682 100.442 11.4739 99.9979 12.9442L100.014 12.9403Z" fill="#F14D62" stroke="white"/>
</svg>
