<svg width="717" height="717" viewBox="0 0 717 717" fill="none" xmlns="http://www.w3.org/2000/svg">
<path d="M291.671 291.667C365.309 291.667 425.005 231.971 425.005 158.333C425.005 84.6954 365.309 25 291.671 25C218.033 25 158.338 84.6954 158.338 158.333C158.338 231.971 218.033 291.667 291.671 291.667Z" stroke="#F14D62" stroke-width="50"/>
<path d="M591.671 248.045L574.381 266.102C584.048 275.359 599.295 275.359 608.961 266.102L591.671 248.045ZM574.555 350.363C560.625 340.14 545.275 327.373 533.655 313.937C521.378 299.743 516.671 288.71 516.671 281.557H466.671C466.671 307.22 481.378 329.93 495.835 346.643C510.945 364.116 529.641 379.423 544.978 390.676L574.555 350.363ZM516.671 281.557C516.671 262.356 525.425 254.001 533.068 251.321C541.411 248.396 556.865 249.329 574.381 266.102L608.961 229.987C581.481 203.676 546.935 193.477 516.528 204.137C485.421 215.041 466.671 244.985 466.671 281.557H516.671ZM638.365 390.676C653.701 379.423 672.398 364.116 687.508 346.643C701.965 329.93 716.671 307.22 716.671 281.557H666.671C666.671 288.711 661.965 299.747 649.688 313.937C638.068 327.377 622.718 340.14 608.788 350.363L638.365 390.676ZM716.671 281.557C716.671 244.985 697.921 215.041 666.815 204.136C636.408 193.477 601.861 203.676 574.381 229.987L608.961 266.102C626.478 249.329 641.931 248.396 650.275 251.321C657.918 254.001 666.671 262.356 666.671 281.557H716.671ZM544.978 390.676C557.265 399.69 571.058 410.92 591.671 410.92V360.92C590.858 360.92 590.355 360.917 588.541 359.96C585.678 358.447 582.098 355.896 574.555 350.363L544.978 390.676ZM608.788 350.363C601.245 355.896 597.665 358.447 594.801 359.96C592.988 360.917 592.485 360.92 591.671 360.92V410.92C612.285 410.92 626.078 399.69 638.365 390.676L608.788 350.363Z" fill="#F14D62"/>
<path d="M558.255 558.333C558.338 552.86 558.338 547.3 558.338 541.666C558.338 458.823 438.948 391.667 291.672 391.667C144.396 391.667 25.0049 458.823 25.0049 541.666C25.0049 624.51 25.0049 691.666 291.672 691.666C366.038 691.666 419.665 686.443 458.338 677.113" stroke="#F14D62" stroke-width="50" stroke-linecap="round"/>
</svg>
