<svg preserveAspectRatio="none" width="100%" height="100%" overflow="visible" style="display: block;" viewBox="0 0 213 46" fill="none" xmlns="http://www.w3.org/2000/svg">
<g id="Vector">
<path d="M34.7719 43.412C34.5715 44.0442 32.9897 44.5691 30.0235 44.9866C29.2068 45.1029 28.3627 45.2043 27.4914 45.2997C26.7688 45.3772 26.028 45.4488 25.2689 45.5114C23.6204 45.6516 21.8807 45.759 20.053 45.8305C16.3641 45.9796 12.8271 46.0065 9.44184 45.9051C6.05661 45.8067 3.84938 45.5383 2.82318 45.1029C2.219 44.8643 1.71804 43.2688 1.32943 40.3075C0.934735 37.3492 0.62809 33.8869 0.406456 29.9147C0.184822 25.9454 0.05427 21.8986 0.0148009 17.7712C-0.0246682 13.6439 0.014801 10.283 0.133208 7.68849C0.133208 6.26301 0.254651 4.96278 0.497538 3.78482C0.740425 2.60984 1.11083 1.87026 1.61482 1.57204C2.11881 1.27382 3.89188 1.02034 6.93707 0.79966C9.97923 0.581961 13.2643 0.447764 16.7922 0.400049C19.8161 0.355316 22.6458 0.394086 25.2841 0.513373C25.7213 0.531266 26.1555 0.555124 26.5836 0.578981C27.6857 0.638625 28.6147 0.722122 29.3737 0.817552C30.6793 0.987536 31.4747 1.20822 31.754 1.48557C32.2975 1.92096 32.6041 3.63869 32.674 6.63578C32.7438 9.63287 32.5586 11.8963 32.1153 13.4202C31.8937 14.133 30.4789 14.5743 27.8678 14.7413C26.8143 14.8099 25.691 14.8726 24.4947 14.9292C24.0363 14.9531 23.5657 14.974 23.086 14.9978C21.7167 15.0604 20.2655 15.1171 18.7262 15.1708C18.7262 15.4093 18.7353 15.6867 18.7565 16.0028C18.7778 16.3219 18.796 16.5963 18.8173 16.8348C20.4446 16.8647 21.8564 16.9601 23.0526 17.1181C23.5293 17.1837 23.9725 17.2583 24.3794 17.3418C24.4037 17.3478 24.431 17.3597 24.4553 17.3746C24.771 17.5327 25.0868 18.1142 25.3904 19.1072C25.7244 20.1868 25.9551 21.3648 26.0857 22.6411C26.2162 23.9175 26.2132 25.1014 26.0705 26.1899C25.9278 27.2784 25.5756 27.8599 25.0109 27.9405C24.8864 27.9762 24.7316 28.009 24.5433 28.0448C24.1881 28.1104 23.7205 28.1701 23.1407 28.2238C23.0374 28.2327 22.9312 28.2417 22.8188 28.2506C21.7623 28.3401 20.5843 28.4057 19.297 28.4444V30.195C20.645 30.1801 21.9414 30.1562 23.1892 30.1264C23.672 30.1115 24.1486 30.0995 24.6132 30.0817C26.1008 30.0339 27.5126 29.9713 28.8485 29.8968C31.6903 29.7387 33.3632 29.9266 33.8671 30.4604C34.4106 30.8958 34.8083 32.7865 35.0603 36.1325C35.3123 39.4785 35.2182 41.903 34.7749 43.406L34.7719 43.412Z" fill="var(--fill-0, #FAFAFA)"/>
<path d="M69.2466 27.0249C69.1768 31.4177 69.0402 35.2945 68.8398 38.6495C68.7244 40.576 68.606 42.0432 68.4846 43.0452C68.3935 43.7878 68.3024 44.2768 68.2053 44.5124C67.9654 44.9896 67.2398 45.3355 66.0314 45.5532C64.8231 45.7709 63.4872 45.8991 62.0268 45.9379C60.5634 45.9797 59.1638 45.9379 57.8249 45.8216C56.486 45.7023 55.5721 45.5353 55.0863 45.3176C54.4032 45.0194 53.4044 44.2321 52.0928 42.9557C50.7842 41.6794 49.4423 40.2956 48.073 38.7986C46.7007 37.3045 45.4528 35.8939 44.3234 34.5669C43.194 33.2398 42.4805 32.372 42.1769 31.9545C41.8733 35.4794 41.5636 38.5004 41.2388 41.0263C40.9169 43.5492 40.504 44.9299 40 45.1685C38.5427 45.8276 36.0622 46.087 32.5586 45.9499C34.7749 45.4638 35.792 44.8286 36.1078 43.8295L36.1169 43.8027C36.6118 42.1237 36.7211 39.5859 36.4539 36.0401C36.1139 31.5161 35.5765 30.1234 34.8235 29.4644C34.107 28.7725 32.8349 28.4713 30.6064 28.4713C30.0538 28.4713 29.4345 28.4922 28.7605 28.528C28.0439 28.5667 27.3031 28.6025 26.538 28.6353C26.9631 28.191 27.3122 27.4842 27.458 26.3689C27.6098 25.182 27.6159 23.8817 27.4762 22.5099C27.3365 21.1501 27.0845 19.8707 26.7293 18.7136C26.4379 17.7713 26.0462 16.7842 25.3115 16.2832C26.2405 16.2325 27.121 16.1818 27.9529 16.1281C30.3696 15.973 32.9077 15.5794 33.4542 13.8318L33.4603 13.8079C33.9491 12.132 34.1495 9.77903 34.0736 6.61195C33.9825 2.72021 33.518 1.30069 32.8349 0.602861C34.3529 0.58795 35.8801 0.66549 37.4133 0.838456C39.1742 1.03528 40.5314 1.33349 41.4786 1.73012C42.8691 2.34147 44.6058 3.97571 46.6916 6.62985C48.7774 9.28398 50.2924 11.291 51.2396 12.6568C51.1789 10.5395 51.1121 8.66369 51.0423 7.02946C50.9725 5.39821 50.9755 4.19341 51.0575 3.42102C51.0969 2.46971 52.0229 1.74802 53.8355 1.25298C55.648 0.760924 57.6397 0.477612 59.8075 0.409022C61.9722 0.340432 63.9699 0.483577 65.7916 0.838456C67.6163 1.19632 68.5787 1.73907 68.6789 2.46971C68.7335 2.98861 68.7852 3.53136 68.8307 4.10096C69.0432 6.72826 69.1768 9.90725 69.2375 13.632C69.3074 18.1679 69.3074 22.6292 69.2375 27.0249H69.2466Z" fill="var(--fill-0, #FAFAFA)"/>
<path d="M101.696 29.5031C101.587 27.2188 101.429 25.331 101.229 23.8489C101.107 23.0556 100.206 22.5367 98.5236 22.2892C97.4124 22.1252 96.2496 22.0566 95.026 22.0805C96.2526 24.5736 97.549 27.0935 98.9031 29.6403C99.902 31.522 100.88 33.3054 101.836 34.9963C101.836 33.1891 101.787 31.358 101.696 29.5061V29.5031ZM97.6522 30.2755C96.201 27.5498 94.8135 24.83 93.4958 22.1491C93.3562 22.158 93.2196 22.1729 93.0799 22.1849C91.1338 22.3638 89.3759 22.7187 87.8062 23.2555C86.2335 23.7893 85.4897 24.4304 85.5686 25.1849C85.4077 26.3122 85.2255 27.4365 85.0252 28.5548C84.8248 29.6731 83.8472 30.2248 82.0923 30.2039C79.6725 30.0846 77.8205 29.4077 76.5302 28.1701C75.2399 26.9355 74.493 25.5279 74.2926 23.9563C74.0922 22.3817 74.4323 20.8339 75.3218 19.31C76.2084 17.7861 77.6293 16.6768 79.5815 15.9849C80.9932 15.5107 82.6145 15.3229 84.4483 15.4213C84.8734 15.4809 85.0677 15.7881 85.0403 16.3428C85.01 16.8974 85.4259 17.2344 86.2942 17.3537C86.9166 17.4521 87.9459 17.4521 89.3789 17.3537C89.9588 17.315 90.5417 17.2583 91.1247 17.1808C89.64 13.9749 88.6442 11.622 88.0886 10.0146C87.5148 8.31475 88.2009 6.59403 90.1288 4.89419C90.9971 4.12777 91.9656 3.41503 93.0192 2.77088C89.5945 1.02332 85.8145 0.24199 81.6672 0.429867C77.353 0.650548 73.5245 1.62572 70.1817 3.35837C70.4337 6.12881 70.5886 9.5762 70.6493 13.623C70.7191 18.15 70.7191 22.668 70.6493 27.0577C70.5795 31.4505 70.4398 35.381 70.2394 38.7419C70.0816 41.3304 69.9389 42.8245 69.8083 43.7311C72.4345 44.9508 75.3188 45.6814 78.4611 45.923C81.9678 46.1586 85.5322 45.8544 89.1603 45.0015C89.3425 45.2997 89.5246 45.4578 89.7038 45.4756C90.9334 45.8335 93.007 45.9707 95.9156 45.8932C98.8272 45.8126 100.445 45.5651 100.77 45.1506C101.113 44.8524 101.368 43.8533 101.538 42.1505C101.669 40.8443 101.757 39.386 101.8 37.7727C100.458 35.4645 99.067 32.9595 97.6492 30.2904L97.6522 30.2755ZM98.9912 13.5455C98.9152 8.90224 97.3851 5.57412 94.3945 3.55817C93.1649 4.25898 92.0567 5.04628 91.073 5.91409C89.5914 7.22029 89.0449 8.43701 89.4244 9.56428C89.974 11.1717 91.0245 13.6349 92.5698 16.9541C92.9524 16.8885 93.3349 16.814 93.7175 16.7334C95.1778 16.4263 96.4439 16.0117 97.5095 15.4869C98.5782 14.962 99.0731 14.3119 98.9942 13.5425L98.9912 13.5455ZM69.2466 13.632C69.1889 9.90722 69.0554 6.72822 68.8398 4.10093C67.5859 4.8584 66.4079 5.72919 65.2997 6.71629C60.9763 10.5752 58.423 15.9491 57.6366 22.8379C56.9323 29.1512 58.6719 34.4565 62.8648 38.7538C64.5711 40.5014 66.4413 41.9298 68.4785 43.0481C68.5999 42.0432 68.7214 40.5789 68.8337 38.6524C69.0341 35.2975 69.1707 31.4236 69.2406 27.0279C69.3104 22.6352 69.3104 18.1708 69.2406 13.6349L69.2466 13.632Z" fill="var(--fill-0, #FAFAFA)"/>
<path d="M141.023 9.56429C140.598 10.9122 139.541 13.468 137.847 17.2404C136.156 21.0099 134.301 24.9225 132.285 28.9812C132.279 28.9932 132.273 29.0051 132.27 29.017C132.218 29.1244 132.166 29.2258 132.112 29.3302C132.036 29.4763 131.963 29.6284 131.89 29.7715C131.629 30.2964 131.365 30.8153 131.104 31.3252C129.504 34.4655 127.943 37.3552 126.416 39.9974C124.522 43.2808 123.164 45.1148 122.336 45.4906C121.971 45.6665 121.148 45.7977 119.855 45.8783C118.565 45.9558 117.18 45.9946 115.699 45.9946C114.217 45.9946 112.827 45.9498 111.527 45.8604C110.228 45.7739 109.396 45.6486 109.031 45.4906C108.206 45.1327 106.836 43.3941 104.921 40.2658C103.916 38.6226 102.88 36.8661 101.824 34.9933C100.867 33.3024 99.8868 31.5161 98.891 29.6373C97.5369 27.0905 96.2435 24.5706 95.0139 22.0775C94.3308 20.6938 93.6689 19.319 93.0252 17.9532C92.8674 17.6132 92.7095 17.2822 92.5577 16.9571C91.0123 13.635 89.9649 11.1717 89.4123 9.56728C89.0298 8.44001 89.5793 7.2203 91.0609 5.91709C92.0446 5.04629 93.1528 4.26198 94.3824 3.56117C95.0017 3.20629 95.6515 2.87228 96.3346 2.56214C98.3688 1.6317 100.357 1.01439 102.304 0.707223C104.25 0.400059 105.482 0.671443 106.008 1.52435C107.677 4.31268 109.28 7.29784 110.814 10.4768C112.344 13.6529 113.856 16.7484 115.347 19.7544C116.84 16.3905 118.37 13.0236 119.943 9.65972C121.516 6.29583 122.915 3.58205 124.145 1.52435C124.649 0.671443 125.879 0.400059 127.834 0.707223C128.842 0.865278 129.862 1.10683 130.9 1.43189C131.429 1.59591 131.963 1.78379 132.497 1.99254C132.95 2.16849 133.405 2.35935 133.861 2.56214C135.925 3.49258 137.719 4.61089 139.241 5.91709C140.762 7.22328 141.351 8.44001 141.011 9.56728L141.023 9.56429Z" fill="var(--fill-0, #FAFAFA)"/>
<path d="M151.98 27.1413C151.798 31.4773 151.525 35.3094 151.163 38.6316C151.024 39.9378 150.872 41.0322 150.717 41.915C150.702 41.9955 150.69 42.073 150.674 42.1505C150.656 42.2579 150.635 42.3623 150.614 42.4637C150.595 42.5651 150.574 42.6605 150.553 42.7559C150.544 42.8036 150.535 42.8514 150.523 42.8931C150.483 43.075 150.441 43.242 150.398 43.4001C150.389 43.4389 150.377 43.4746 150.368 43.5134C150.328 43.6595 150.283 43.7937 150.24 43.916C150.216 43.9786 150.195 44.0353 150.173 44.089L150.143 44.1635C150.079 44.3067 150.016 44.42 149.952 44.5094C149.53 45.3027 147.423 45.7739 143.637 45.92C139.848 46.0691 137.167 45.8156 135.594 45.1625C134.89 44.8643 134.222 42.8275 133.599 39.0461C133.214 36.7289 132.865 34.2359 132.552 31.5668C132.883 30.9167 133.214 30.2546 133.548 29.5837C135.564 25.5279 137.44 21.5616 139.131 17.7951C140.862 13.9362 141.921 11.3775 142.368 9.95795C142.878 8.27004 142.143 6.55827 140.176 4.87036C138.56 3.48365 136.636 2.28183 134.456 1.29771C134.407 1.27385 134.355 1.25298 134.307 1.2321C134.337 1.22315 134.371 1.21421 134.401 1.20526C136.526 0.581988 138.855 0.236052 141.384 0.167462C143.913 0.098872 146.23 0.301662 148.334 0.775829C149.211 0.972652 149.915 1.21719 150.447 1.50646C150.957 1.7838 151.312 2.10588 151.506 2.4697C151.594 2.6367 151.652 2.81563 151.676 3.00053C151.998 5.85149 152.174 9.50167 152.205 13.957C152.235 18.4124 152.159 22.8052 151.98 27.1383V27.1413Z" fill="var(--fill-0, #FAFAFA)"/>
<path d="M152.205 13.96C152.177 9.50464 151.998 5.85446 151.676 3.0035C151.652 2.81563 151.597 2.63968 151.506 2.47268C151.312 2.10885 150.957 1.78975 150.447 1.50943C149.487 2.18638 148.913 2.97964 148.737 3.87728C148.44 5.43397 148.243 8.35651 148.139 12.8149C148.039 17.1778 148.048 21.7554 148.17 26.4195C148.288 31.0926 148.543 35.3899 148.932 39.1862C149.05 40.3433 149.178 41.3155 149.326 42.1535H150.668C150.684 42.076 150.696 41.9984 150.711 41.9179C150.866 41.0352 151.014 39.9378 151.157 38.6345C151.521 35.3094 151.792 31.4803 151.974 27.1442C152.153 22.8111 152.229 18.4154 152.199 13.963L152.205 13.96ZM187.472 25.9275C186.616 23.3926 184.858 21.3349 182.198 19.7514L182.107 19.6918C184.123 16.6022 184.536 13.298 183.346 9.77304C182.417 7.01751 180.771 4.86736 178.409 3.31961C177.753 2.89018 177.04 2.50846 176.272 2.17147C173.852 1.14262 171.168 0.489523 168.214 0.21218C165.26 -0.0651621 162.476 -0.0711228 159.859 0.197273C157.238 0.465669 155.004 0.954744 153.161 1.66748C153.021 1.72116 152.888 1.77485 152.757 1.83151C152.924 2.14166 153.03 2.47863 153.073 2.83948C153.401 5.75903 153.58 9.49272 153.61 13.9511C153.641 18.4064 153.565 22.8648 153.386 27.1979C153.2 31.5578 152.924 35.4555 152.56 38.7807C152.195 42.1505 151.825 43.746 151.482 44.5959C151.634 44.8673 151.795 45.0373 151.968 45.1059C152.712 45.425 154.154 45.6456 156.288 45.7769C158.426 45.9051 160.7 45.9737 163.104 45.9826C165.512 45.9916 167.771 45.9737 169.878 45.923C171.982 45.8753 173.396 45.8097 174.125 45.7292C176.244 45.5353 178.172 44.9776 179.912 44.0591C180.999 43.4865 182.013 42.7708 182.951 41.9149C185.392 39.6873 186.983 37.0301 187.727 33.9406C188.413 31.1314 188.328 28.4564 187.472 25.9245V25.9275ZM164.574 11.2283C164.735 10.614 165.439 10.3068 166.69 10.3068C168.08 10.3247 169.113 10.6528 169.787 11.285C170.461 11.9202 170.798 12.621 170.798 13.3934C170.798 14.5624 170.206 15.5316 169.028 16.304C167.85 17.0764 166.705 17.2851 165.597 16.9273C165.014 16.7513 164.637 15.964 164.464 14.5684C164.294 13.1697 164.328 12.0604 164.571 11.2283H164.574ZM169.592 34.373C167.151 35.038 165.694 34.8323 165.211 33.7647C164.725 32.7537 164.489 31.3938 164.501 29.682C164.51 27.9733 164.856 26.9563 165.542 26.6402C166.872 26.0468 168.332 26.1512 169.923 26.9534C171.514 27.7556 172.443 28.8858 172.704 30.353C173.066 32.372 172.027 33.711 169.589 34.373H169.592Z" fill="var(--fill-0, #FAFAFA)"/>
<path d="M187.472 25.9275C186.616 23.3926 184.858 21.3349 182.198 19.7514L182.107 19.6918C184.123 16.6022 184.536 13.298 183.346 9.77304C182.417 7.01751 180.771 4.86736 178.409 3.31961C178.37 3.46574 178.333 3.62382 178.3 3.78784C178.057 4.9658 177.935 6.26602 177.935 7.69449C177.817 10.286 177.778 13.6469 177.817 17.7742C177.856 21.9016 177.987 25.9484 178.209 29.9177C178.43 33.887 178.737 37.3493 179.132 40.3076C179.356 42.0074 179.617 43.2569 179.912 44.0562C180.999 43.4836 182.013 42.7679 182.951 41.912C185.392 39.6843 186.983 37.0272 187.727 33.9376C188.413 31.1284 188.328 28.4534 187.472 25.9216V25.9275Z" fill="var(--fill-0, #FAFAFA)"/>
<path d="M212.58 43.412C212.38 44.0442 210.798 44.5691 207.835 44.9866C204.872 45.4011 201.547 45.6844 197.858 45.8306C194.169 45.9797 190.632 46.0065 187.247 45.9051C184.026 45.8097 181.87 45.5651 180.783 45.1625C181.901 44.5512 182.945 43.8057 183.91 42.9199C186.546 40.5133 188.288 37.5968 189.093 34.2597C189.837 31.2089 189.743 28.2596 188.805 25.4861C187.964 22.999 186.345 20.9055 183.983 19.2474C185.617 16.14 185.85 12.8089 184.676 9.33169C183.619 6.19743 181.703 3.74607 178.956 2.01939C179.095 1.82257 179.247 1.67048 179.414 1.57206C179.918 1.27385 181.691 1.02036 184.736 0.799682C187.778 0.581983 191.063 0.447786 194.591 0.400071C198.119 0.349374 201.383 0.409016 204.386 0.576018C207.388 0.74302 209.113 1.0472 209.556 1.4826C210.1 1.918 210.406 3.63573 210.476 6.63282C210.546 9.62991 210.361 11.8934 209.918 13.4173C209.696 14.13 208.278 14.5714 205.67 14.7384C203.062 14.9054 200.014 15.0515 196.525 15.1678C196.525 15.4064 196.538 15.6837 196.556 15.9998C196.577 16.3189 196.595 16.5933 196.616 16.8319C198.894 16.8736 200.749 17.0406 202.179 17.3388C202.522 17.4373 202.862 18.0277 203.193 19.1043C203.524 20.1838 203.754 21.3618 203.885 22.6382C204.015 23.9145 204.012 25.0985 203.87 26.187C203.727 27.2754 203.375 27.857 202.81 27.9375C202.406 28.0538 201.678 28.1582 200.618 28.2476C199.561 28.3371 198.386 28.4027 197.096 28.4415V30.192C200.624 30.1532 203.809 30.0548 206.651 29.8938C209.489 29.7357 211.165 29.9236 211.669 30.4574C212.213 30.8928 212.611 32.7835 212.863 36.1295C213.115 39.4755 213.02 41.9 212.577 43.4031L212.58 43.412Z" fill="var(--fill-0, #FAFAFA)"/>
</g>
</svg>
