<svg width="278" height="60" viewBox="0 0 278 60" fill="none" xmlns="http://www.w3.org/2000/svg">
<path d="M45.383 56.6243C45.1215 57.449 43.057 58.1336 39.1856 58.6781C38.1196 58.8298 37.018 58.9621 35.8807 59.0866C34.9377 59.1877 33.9708 59.2811 32.9801 59.3627C30.8284 59.5456 28.5579 59.6856 26.1724 59.7789C21.3579 59.9734 16.7414 60.0084 12.3232 59.8762C7.90487 59.7478 5.02407 59.3977 3.68471 58.8298C2.89616 58.5187 2.24233 56.4376 1.73512 52.5751C1.21998 48.7164 0.819761 44.2003 0.530492 39.0191C0.241223 33.8418 0.0708313 28.5633 0.0193176 23.1799C-0.0321961 17.7964 0.0193177 13.4126 0.173859 10.0285C0.173859 8.16914 0.332362 6.47319 0.649369 4.93672C0.966376 3.40414 1.44981 2.43947 2.1076 2.05049C2.76539 1.66151 5.07954 1.33088 9.05402 1.04303C13.0245 0.759079 17.3121 0.58404 21.9166 0.521803C25.8633 0.463456 29.5565 0.514025 32.9999 0.669617C33.5706 0.692956 34.1372 0.724075 34.6959 0.755193C36.1344 0.832989 37.3469 0.941899 38.3376 1.06637C40.0415 1.28809 41.0797 1.57594 41.4442 1.93769C42.1535 2.5056 42.5537 4.74612 42.6449 8.65537C42.736 12.5646 42.4943 15.517 41.9158 17.5047C41.6265 18.4343 39.7799 19.01 36.3721 19.2278C34.9971 19.3173 33.5309 19.399 31.9697 19.4729C31.3713 19.504 30.7571 19.5312 30.131 19.5624C28.3439 19.644 26.4498 19.7179 24.4408 19.788C24.4408 20.0991 24.4526 20.4609 24.4804 20.8732C24.5081 21.2894 24.5319 21.6473 24.5596 21.9585C26.6836 21.9974 28.5262 22.1218 30.0874 22.328C30.7096 22.4136 31.2881 22.5108 31.8191 22.6197C31.8508 22.6275 31.8865 22.6431 31.9182 22.6625C32.3303 22.8687 32.7424 23.6272 33.1386 24.9225C33.5745 26.3306 33.8757 27.8671 34.0461 29.5319C34.2165 31.1967 34.2125 32.741 34.0263 34.1608C33.84 35.5805 33.3804 36.339 32.6433 36.4441C32.4808 36.4908 32.2788 36.5335 32.0331 36.5802C31.5695 36.6658 30.9592 36.7436 30.2024 36.8136C30.0676 36.8253 29.9289 36.8369 29.7823 36.8486C28.4033 36.9653 26.8659 37.0509 25.1857 37.1014V39.3848C26.9451 39.3653 28.6371 39.3342 30.2658 39.2953C30.8958 39.2758 31.5179 39.2603 32.1242 39.2369C34.0659 39.1747 35.9085 39.093 37.652 38.9958C41.361 38.7896 43.5444 39.0347 44.2022 39.731C44.9115 40.2989 45.4306 42.765 45.7595 47.1293C46.0884 51.4937 45.9655 54.6561 45.387 56.6165L45.383 56.6243Z" fill="#ED1E79"/>
<path d="M45.383 56.6243C45.1215 57.449 43.057 58.1336 39.1856 58.6781C38.1196 58.8298 37.018 58.9621 35.8807 59.0866C34.9377 59.1877 33.9708 59.2811 32.9801 59.3627C30.8284 59.5456 28.5579 59.6856 26.1724 59.7789C21.3579 59.9734 16.7414 60.0084 12.3232 59.8762C7.90487 59.7478 5.02407 59.3977 3.68471 58.8298C2.89616 58.5187 2.24233 56.4376 1.73512 52.5751C1.21998 48.7164 0.819761 44.2003 0.530492 39.0191C0.241223 33.8418 0.0708313 28.5633 0.0193176 23.1799C-0.0321961 17.7964 0.0193177 13.4126 0.173859 10.0285C0.173859 8.16914 0.332362 6.47319 0.649369 4.93672C0.966376 3.40414 1.44981 2.43947 2.1076 2.05049C2.76539 1.66151 5.07954 1.33088 9.05402 1.04303C13.0245 0.759079 17.3121 0.58404 21.9166 0.521803C25.8633 0.463456 29.5565 0.514025 32.9999 0.669617C33.5706 0.692956 34.1372 0.724075 34.6959 0.755193C36.1344 0.832989 37.3469 0.941899 38.3376 1.06637C40.0415 1.28809 41.0797 1.57594 41.4442 1.93769C42.1535 2.5056 42.5537 4.74612 42.6449 8.65537C42.736 12.5646 42.4943 15.517 41.9158 17.5047C41.6265 18.4343 39.7799 19.01 36.3721 19.2278C34.9971 19.3173 33.5309 19.399 31.9697 19.4729C31.3713 19.504 30.7571 19.5312 30.131 19.5624C28.3439 19.644 26.4498 19.7179 24.4408 19.788C24.4408 20.0991 24.4526 20.4609 24.4804 20.8732C24.5081 21.2894 24.5319 21.6473 24.5596 21.9585C26.6836 21.9974 28.5262 22.1218 30.0874 22.328C30.7096 22.4136 31.2881 22.5108 31.8191 22.6197C31.8508 22.6275 31.8865 22.6431 31.9182 22.6625C32.3303 22.8687 32.7424 23.6272 33.1386 24.9225C33.5745 26.3306 33.8757 27.8671 34.0461 29.5319C34.2165 31.1967 34.2125 32.741 34.0263 34.1608C33.84 35.5805 33.3804 36.339 32.6433 36.4441C32.4808 36.4908 32.2788 36.5335 32.0331 36.5802C31.5695 36.6658 30.9592 36.7436 30.2024 36.8136C30.0676 36.8253 29.9289 36.8369 29.7823 36.8486C28.4033 36.9653 26.8659 37.0509 25.1857 37.1014V39.3848C26.9451 39.3653 28.6371 39.3342 30.2658 39.2953C30.8958 39.2758 31.5179 39.2603 32.1242 39.2369C34.0659 39.1747 35.9085 39.093 37.652 38.9958C41.361 38.7896 43.5444 39.0347 44.2022 39.731C44.9115 40.2989 45.4306 42.765 45.7595 47.1293C46.0884 51.4937 45.9655 54.6561 45.387 56.6165L45.383 56.6243Z" fill="url(#paint0_linear_136_40)"/>
<path d="M90.3783 35.2499C90.2871 40.9796 90.1088 46.0363 89.8473 50.4124C89.6967 52.9252 89.5422 54.839 89.3836 56.1459C89.2648 57.1145 89.1459 57.7524 89.0191 58.0597C88.706 58.6821 87.759 59.1333 86.1819 59.4172C84.6048 59.7012 82.8612 59.8684 80.9552 59.919C79.0452 59.9735 77.2185 59.919 75.471 59.7673C73.7235 59.6117 72.5307 59.3939 71.8967 59.11C71.0051 58.721 69.7015 57.694 67.9896 56.0292C66.2817 54.3644 64.5303 52.5595 62.7431 50.6069C60.9521 48.6581 59.3234 46.8182 57.8494 45.0872C56.3753 43.3563 55.4441 42.2243 55.0478 41.6798C54.6515 46.2775 54.2474 50.2179 53.8234 53.5125C53.4033 56.8033 52.8644 58.6043 52.2066 58.9155C50.3046 59.7751 47.0672 60.1135 42.4943 59.9346C45.387 59.3005 46.7145 58.472 47.1266 57.1689L47.1385 57.1339C47.7844 54.944 47.927 51.6338 47.5783 47.0088C47.1345 41.108 46.4331 39.2914 45.4504 38.4318C44.5152 37.5293 42.8549 37.1365 39.9464 37.1365C39.2252 37.1365 38.4168 37.1637 37.5371 37.2104C36.602 37.261 35.6351 37.3076 34.6365 37.3504C35.1913 36.7708 35.647 35.849 35.8372 34.3942C36.0353 32.846 36.0432 31.1501 35.8609 29.3608C35.6787 27.587 35.3498 25.9183 34.8862 24.4091C34.5057 23.1799 33.9946 21.8924 33.0356 21.2389C34.2482 21.1728 35.3973 21.1066 36.4831 21.0366C39.6373 20.8344 42.95 20.3209 43.6633 18.0415L43.6712 18.0104C44.3092 15.8243 44.5707 12.7553 44.4717 8.62429C44.3528 3.5481 43.7465 1.69655 42.8549 0.786341C44.8362 0.766892 46.8294 0.86803 48.8305 1.09364C51.1288 1.35036 52.9001 1.73934 54.1364 2.25668C55.9513 3.05409 58.2179 5.18571 60.9402 8.64763C63.6625 12.1095 65.6398 14.7274 66.8761 16.5089C66.7969 13.7471 66.7097 11.3005 66.6186 9.16886C66.5274 7.04114 66.5314 5.46966 66.6384 4.4622C66.6899 3.22136 67.8985 2.28003 70.2641 1.63433C72.6298 0.992509 75.2293 0.622972 78.0586 0.533506C80.8839 0.444041 83.4913 0.630752 85.8688 1.09364C88.2503 1.56041 89.5065 2.26836 89.6372 3.22136C89.7086 3.89818 89.7759 4.60612 89.8354 5.34908C90.1128 8.77599 90.2871 12.9225 90.3664 17.7809C90.4575 23.6972 90.4575 29.5164 90.3664 35.2499H90.3783Z" fill="#ED1E79"/>
<path d="M90.3783 35.2499C90.2871 40.9796 90.1088 46.0363 89.8473 50.4124C89.6967 52.9252 89.5422 54.839 89.3836 56.1459C89.2648 57.1145 89.1459 57.7524 89.0191 58.0597C88.706 58.6821 87.759 59.1333 86.1819 59.4172C84.6048 59.7012 82.8612 59.8684 80.9552 59.919C79.0452 59.9735 77.2185 59.919 75.471 59.7673C73.7235 59.6117 72.5307 59.3939 71.8967 59.11C71.0051 58.721 69.7015 57.694 67.9896 56.0292C66.2817 54.3644 64.5303 52.5595 62.7431 50.6069C60.9521 48.6581 59.3234 46.8182 57.8494 45.0872C56.3753 43.3563 55.4441 42.2243 55.0478 41.6798C54.6515 46.2775 54.2474 50.2179 53.8234 53.5125C53.4033 56.8033 52.8644 58.6043 52.2066 58.9155C50.3046 59.7751 47.0672 60.1135 42.4943 59.9346C45.387 59.3005 46.7145 58.472 47.1266 57.1689L47.1385 57.1339C47.7844 54.944 47.927 51.6338 47.5783 47.0088C47.1345 41.108 46.4331 39.2914 45.4504 38.4318C44.5152 37.5293 42.8549 37.1365 39.9464 37.1365C39.2252 37.1365 38.4168 37.1637 37.5371 37.2104C36.602 37.261 35.6351 37.3076 34.6365 37.3504C35.1913 36.7708 35.647 35.849 35.8372 34.3942C36.0353 32.846 36.0432 31.1501 35.8609 29.3608C35.6787 27.587 35.3498 25.9183 34.8862 24.4091C34.5057 23.1799 33.9946 21.8924 33.0356 21.2389C34.2482 21.1728 35.3973 21.1066 36.4831 21.0366C39.6373 20.8344 42.95 20.3209 43.6633 18.0415L43.6712 18.0104C44.3092 15.8243 44.5707 12.7553 44.4717 8.62429C44.3528 3.5481 43.7465 1.69655 42.8549 0.786341C44.8362 0.766892 46.8294 0.86803 48.8305 1.09364C51.1288 1.35036 52.9001 1.73934 54.1364 2.25668C55.9513 3.05409 58.2179 5.18571 60.9402 8.64763C63.6625 12.1095 65.6398 14.7274 66.8761 16.5089C66.7969 13.7471 66.7097 11.3005 66.6186 9.16886C66.5274 7.04114 66.5314 5.46966 66.6384 4.4622C66.6899 3.22136 67.8985 2.28003 70.2641 1.63433C72.6298 0.992509 75.2293 0.622972 78.0586 0.533506C80.8839 0.444041 83.4913 0.630752 85.8688 1.09364C88.2503 1.56041 89.5065 2.26836 89.6372 3.22136C89.7086 3.89818 89.7759 4.60612 89.8354 5.34908C90.1128 8.77599 90.2871 12.9225 90.3664 17.7809C90.4575 23.6972 90.4575 29.5164 90.3664 35.2499H90.3783Z" fill="url(#paint1_linear_136_40)"/>
<path d="M127.452 39.4898C125.558 35.9345 123.747 32.387 122.027 28.8901C121.845 28.9017 121.667 28.9212 121.485 28.9368C118.945 29.1701 116.65 29.633 114.602 30.3332C112.549 31.0295 111.578 31.8658 111.681 32.8499C111.471 34.3202 111.233 35.7867 110.972 37.2454C110.71 38.704 109.434 39.4236 107.144 39.3964C103.986 39.2408 101.569 38.3578 99.8845 36.7436C98.2004 35.1332 97.2256 33.2972 96.9641 31.2473C96.7025 29.1935 97.1463 27.1747 98.3074 25.187C99.4644 23.1993 101.319 21.7523 103.867 20.8499C105.709 20.2314 107.826 19.9863 110.219 20.1147C110.774 20.1925 111.027 20.5931 110.992 21.3166C110.952 22.0401 111.495 22.4797 112.628 22.6353C113.441 22.7637 114.784 22.7637 116.654 22.6353C117.411 22.5847 118.172 22.5108 118.933 22.4097C116.995 18.2282 115.695 15.1591 114.97 13.0625C114.221 10.8453 115.117 8.6009 117.633 6.38372C118.766 5.38404 120.03 4.45438 121.405 3.61419C116.936 1.33477 112.002 0.315639 106.589 0.560696C100.958 0.848541 95.9615 2.12051 91.5987 4.38048C91.9276 7.9941 92.1297 12.4907 92.2089 17.7691C92.3001 23.6739 92.3001 29.5669 92.2089 35.2927C92.1178 41.0224 91.9355 46.1491 91.674 50.5329C91.4679 53.9092 91.2817 55.858 91.1113 57.0405C94.539 58.6315 98.3034 59.5845 102.405 59.8995C106.981 60.2068 111.634 59.8101 116.369 58.6976C116.607 59.0866 116.844 59.2927 117.078 59.3161C118.683 59.7828 121.389 59.9618 125.186 59.8606C128.986 59.7556 131.098 59.4328 131.522 58.8921C131.97 58.5031 132.302 57.2 132.524 54.9789C132.695 53.2752 132.81 51.3731 132.865 49.2687C131.114 46.258 129.299 42.9906 127.448 39.5092L127.452 39.4898Z" fill="#ED1E79"/>
<path d="M127.452 39.4898C125.558 35.9345 123.747 32.387 122.027 28.8901C121.845 28.9017 121.667 28.9212 121.485 28.9368C118.945 29.1701 116.65 29.633 114.602 30.3332C112.549 31.0295 111.578 31.8658 111.681 32.8499C111.471 34.3202 111.233 35.7867 110.972 37.2454C110.71 38.704 109.434 39.4236 107.144 39.3964C103.986 39.2408 101.569 38.3578 99.8845 36.7436C98.2004 35.1332 97.2256 33.2972 96.9641 31.2473C96.7025 29.1935 97.1463 27.1747 98.3074 25.187C99.4644 23.1993 101.319 21.7523 103.867 20.8499C105.709 20.2314 107.826 19.9863 110.219 20.1147C110.774 20.1925 111.027 20.5931 110.992 21.3166C110.952 22.0401 111.495 22.4797 112.628 22.6353C113.441 22.7637 114.784 22.7637 116.654 22.6353C117.411 22.5847 118.172 22.5108 118.933 22.4097C116.995 18.2282 115.695 15.1591 114.97 13.0625C114.221 10.8453 115.117 8.6009 117.633 6.38372C118.766 5.38404 120.03 4.45438 121.405 3.61419C116.936 1.33477 112.002 0.315639 106.589 0.560696C100.958 0.848541 95.9615 2.12051 91.5987 4.38048C91.9276 7.9941 92.1297 12.4907 92.2089 17.7691C92.3001 23.6739 92.3001 29.5669 92.2089 35.2927C92.1178 41.0224 91.9355 46.1491 91.674 50.5329C91.4679 53.9092 91.2817 55.858 91.1113 57.0405C94.539 58.6315 98.3034 59.5845 102.405 59.8995C106.981 60.2068 111.634 59.8101 116.369 58.6976C116.607 59.0866 116.844 59.2927 117.078 59.3161C118.683 59.7828 121.389 59.9618 125.186 59.8606C128.986 59.7556 131.098 59.4328 131.522 58.8921C131.97 58.5031 132.302 57.2 132.524 54.9789C132.695 53.2752 132.81 51.3731 132.865 49.2687C131.114 46.258 129.299 42.9906 127.448 39.5092L127.452 39.4898Z" fill="url(#paint2_linear_136_40)"/>
<path d="M184.058 12.4752C183.503 14.2334 182.124 17.5669 179.913 22.4875C177.706 27.4042 175.285 32.5076 172.653 37.8016C172.646 37.8172 172.638 37.8327 172.634 37.8483C172.566 37.9883 172.499 38.1206 172.428 38.2567C172.329 38.4473 172.233 38.6457 172.138 38.8324C171.798 39.517 171.453 40.1938 171.112 40.859C169.024 44.955 166.987 48.7242 164.994 52.1705C162.521 56.4532 160.75 58.8454 159.668 59.3355C159.193 59.565 158.119 59.7362 156.431 59.8412C154.747 59.9424 152.94 59.9929 151.006 59.9929C149.072 59.9929 147.257 59.9346 145.561 59.8179C143.865 59.7051 142.78 59.5417 142.304 59.3355C141.226 58.8688 139.439 56.601 136.939 52.5206C135.627 50.3773 134.276 48.0862 132.897 45.6434C131.649 43.4379 130.369 41.108 129.069 38.6574C127.302 35.3355 125.614 32.0486 124.009 28.7967C123.117 26.9919 122.253 25.1987 121.413 23.4172C121.207 22.9737 121.001 22.542 120.803 22.118C118.786 17.7847 117.419 14.5718 116.698 12.4791C116.198 11.0087 116.916 9.41778 118.849 7.71794C120.133 6.58212 121.58 5.5591 123.185 4.645C123.993 4.18212 124.841 3.74646 125.732 3.34192C128.387 2.1283 130.983 1.32311 133.523 0.922465C136.063 0.521816 137.672 0.875795 138.357 1.98828C140.537 5.62524 142.629 9.51892 144.63 13.6654C146.627 17.8081 148.601 21.8457 150.546 25.7666C152.496 21.3789 154.493 16.9873 156.546 12.5996C158.598 8.21195 160.425 4.67224 162.03 1.98828C162.688 0.875795 164.292 0.521816 166.844 0.922465C168.16 1.12862 169.491 1.44369 170.847 1.86768C171.536 2.08162 172.233 2.32668 172.931 2.59897C173.521 2.82846 174.116 3.07741 174.71 3.34192C177.405 4.55553 179.747 6.01421 181.732 7.71794C183.717 9.42167 184.486 11.0087 184.042 12.4791L184.058 12.4752Z" fill="#ED1E79"/>
<path d="M184.058 12.4752C183.503 14.2334 182.124 17.5669 179.913 22.4875C177.706 27.4042 175.285 32.5076 172.653 37.8016C172.646 37.8172 172.638 37.8327 172.634 37.8483C172.566 37.9883 172.499 38.1206 172.428 38.2567C172.329 38.4473 172.233 38.6457 172.138 38.8324C171.798 39.517 171.453 40.1938 171.112 40.859C169.024 44.955 166.987 48.7242 164.994 52.1705C162.521 56.4532 160.75 58.8454 159.668 59.3355C159.193 59.565 158.119 59.7362 156.431 59.8412C154.747 59.9424 152.94 59.9929 151.006 59.9929C149.072 59.9929 147.257 59.9346 145.561 59.8179C143.865 59.7051 142.78 59.5417 142.304 59.3355C141.226 58.8688 139.439 56.601 136.939 52.5206C135.627 50.3773 134.276 48.0862 132.897 45.6434C131.649 43.4379 130.369 41.108 129.069 38.6574C127.302 35.3355 125.614 32.0486 124.009 28.7967C123.117 26.9919 122.253 25.1987 121.413 23.4172C121.207 22.9737 121.001 22.542 120.803 22.118C118.786 17.7847 117.419 14.5718 116.698 12.4791C116.198 11.0087 116.916 9.41778 118.849 7.71794C120.133 6.58212 121.58 5.5591 123.185 4.645C123.993 4.18212 124.841 3.74646 125.732 3.34192C128.387 2.1283 130.983 1.32311 133.523 0.922465C136.063 0.521816 137.672 0.875795 138.357 1.98828C140.537 5.62524 142.629 9.51892 144.63 13.6654C146.627 17.8081 148.601 21.8457 150.546 25.7666C152.496 21.3789 154.493 16.9873 156.546 12.5996C158.598 8.21195 160.425 4.67224 162.03 1.98828C162.688 0.875795 164.292 0.521816 166.844 0.922465C168.16 1.12862 169.491 1.44369 170.847 1.86768C171.536 2.08162 172.233 2.32668 172.931 2.59897C173.521 2.82846 174.116 3.07741 174.71 3.34192C177.405 4.55553 179.747 6.01421 181.732 7.71794C183.717 9.42167 184.486 11.0087 184.042 12.4791L184.058 12.4752Z" fill="url(#paint3_linear_136_40)"/>
<path d="M198.359 35.4016C198.121 41.0574 197.764 46.0558 197.293 50.389C197.111 52.0927 196.912 53.5203 196.71 54.6717C196.691 54.7767 196.675 54.8778 196.655 54.979C196.631 55.119 196.603 55.2552 196.576 55.3874C196.552 55.5197 196.524 55.6441 196.496 55.7686C196.485 55.8308 196.473 55.8931 196.457 55.9475C196.405 56.1848 196.35 56.4027 196.294 56.6088C196.282 56.6594 196.267 56.706 196.255 56.7566C196.203 56.9472 196.144 57.1223 196.088 57.2817C196.057 57.3634 196.029 57.4373 196.001 57.5074L195.961 57.6046C195.878 57.7913 195.795 57.9391 195.712 58.0558C195.161 59.0905 192.411 59.7051 187.47 59.8957C182.524 60.0902 179.025 59.7595 176.973 58.9077C176.053 58.5187 175.182 55.862 174.369 50.9297C173.866 47.9073 173.41 44.6555 173.002 41.1741C173.434 40.3261 173.866 39.4626 174.302 38.5874C176.933 33.2973 179.382 28.1238 181.589 23.211C183.848 18.1776 185.231 14.8402 185.813 12.9886C186.479 10.787 185.52 8.55427 182.952 6.35264C180.844 4.54389 178.332 2.9763 175.487 1.69266C175.423 1.66155 175.356 1.63432 175.293 1.60709C175.332 1.59542 175.376 1.58375 175.415 1.57208C178.189 0.759115 181.229 0.307894 184.529 0.218429C187.83 0.128963 190.854 0.393473 193.6 1.01195C194.745 1.26868 195.664 1.58763 196.358 1.96494C197.023 2.32669 197.487 2.7468 197.741 3.22135C197.856 3.43918 197.931 3.67257 197.963 3.91373C198.383 7.63238 198.612 12.3935 198.652 18.2048C198.692 24.0162 198.593 29.7459 198.359 35.3977V35.4016Z" fill="#ED1E79"/>
<path d="M198.359 35.4016C198.121 41.0574 197.764 46.0558 197.293 50.389C197.111 52.0927 196.912 53.5203 196.71 54.6717C196.691 54.7767 196.675 54.8778 196.655 54.979C196.631 55.119 196.603 55.2552 196.576 55.3874C196.552 55.5197 196.524 55.6441 196.496 55.7686C196.485 55.8308 196.473 55.8931 196.457 55.9475C196.405 56.1848 196.35 56.4027 196.294 56.6088C196.282 56.6594 196.267 56.706 196.255 56.7566C196.203 56.9472 196.144 57.1223 196.088 57.2817C196.057 57.3634 196.029 57.4373 196.001 57.5074L195.961 57.6046C195.878 57.7913 195.795 57.9391 195.712 58.0558C195.161 59.0905 192.411 59.7051 187.47 59.8957C182.524 60.0902 179.025 59.7595 176.973 58.9077C176.053 58.5187 175.182 55.862 174.369 50.9297C173.866 47.9073 173.41 44.6555 173.002 41.1741C173.434 40.3261 173.866 39.4626 174.302 38.5874C176.933 33.2973 179.382 28.1238 181.589 23.211C183.848 18.1776 185.231 14.8402 185.813 12.9886C186.479 10.787 185.52 8.55427 182.952 6.35264C180.844 4.54389 178.332 2.9763 175.487 1.69266C175.423 1.66155 175.356 1.63432 175.293 1.60709C175.332 1.59542 175.376 1.58375 175.415 1.57208C178.189 0.759115 181.229 0.307894 184.529 0.218429C187.83 0.128963 190.854 0.393473 193.6 1.01195C194.745 1.26868 195.664 1.58763 196.358 1.96494C197.023 2.32669 197.487 2.7468 197.741 3.22135C197.856 3.43918 197.931 3.67257 197.963 3.91373C198.383 7.63238 198.612 12.3935 198.652 18.2048C198.692 24.0162 198.593 29.7459 198.359 35.3977V35.4016Z" fill="url(#paint4_linear_136_40)"/>
<path d="M244.681 33.8185C243.564 30.5121 241.27 27.8282 237.798 25.7627L237.68 25.6849C240.311 21.6551 240.85 17.3452 239.296 12.7474C238.084 9.15327 235.936 6.34873 232.853 4.32993C231.997 3.7698 231.066 3.2719 230.063 2.83236C226.905 1.49038 223.402 0.638508 219.547 0.276757C215.691 -0.0849941 212.057 -0.0927689 208.642 0.257313C205.222 0.607394 202.306 1.24532 199.9 2.17498C199.718 2.245 199.544 2.31502 199.373 2.38892C199.591 2.79346 199.73 3.233 199.785 3.70367C200.213 7.51178 200.447 12.3818 200.487 18.197C200.526 24.0084 200.427 29.8237 200.193 35.4755C199.952 41.1624 199.591 46.2464 199.116 50.5835C198.64 54.979 198.157 57.06 197.709 58.1686C197.907 58.5226 198.117 58.7443 198.343 58.8337C199.314 59.25 201.196 59.5378 203.982 59.7089C206.771 59.8762 209.739 59.9657 212.878 59.9773C216.02 59.989 218.968 59.9657 221.718 59.8995C224.464 59.8373 226.311 59.7517 227.262 59.6467C230.028 59.3939 232.544 58.6665 234.815 57.4684C236.233 56.7216 237.557 55.788 238.781 54.6717C241.967 51.766 244.043 48.3002 245.014 44.2703C245.91 40.6062 245.799 37.117 244.681 33.8146V33.8185ZM214.796 14.6457C215.006 13.8444 215.925 13.4437 217.558 13.4437C219.372 13.4671 220.72 13.8949 221.599 14.7196C222.479 15.5481 222.919 16.4622 222.919 17.4697C222.919 18.9945 222.146 20.2586 220.609 21.2661C219.071 22.2736 217.577 22.5458 216.131 22.0791C215.37 21.8496 214.879 20.8227 214.653 19.0022C214.431 17.1779 214.475 15.7309 214.792 14.6457H214.796ZM221.346 44.8344C218.16 45.7018 216.258 45.4334 215.628 44.0408C214.994 42.7222 214.685 40.9485 214.701 38.7157C214.712 36.4869 215.164 35.1605 216.06 34.7481C217.795 33.9741 219.701 34.1102 221.778 35.1566C223.854 36.2029 225.067 37.6771 225.407 39.5909C225.879 42.2243 224.524 43.9708 221.342 44.8344H221.346Z" fill="#ED1E79"/>
<path d="M244.681 33.8185C243.564 30.5121 241.27 27.8282 237.798 25.7627L237.68 25.6849C240.311 21.6551 240.85 17.3452 239.296 12.7474C238.084 9.15327 235.936 6.34873 232.853 4.32993C231.997 3.7698 231.066 3.2719 230.063 2.83236C226.905 1.49038 223.402 0.638508 219.547 0.276757C215.691 -0.0849941 212.057 -0.0927689 208.642 0.257313C205.222 0.607394 202.306 1.24532 199.9 2.17498C199.718 2.245 199.544 2.31502 199.373 2.38892C199.591 2.79346 199.73 3.233 199.785 3.70367C200.213 7.51178 200.447 12.3818 200.487 18.197C200.526 24.0084 200.427 29.8237 200.193 35.4755C199.952 41.1624 199.591 46.2464 199.116 50.5835C198.64 54.979 198.157 57.06 197.709 58.1686C197.907 58.5226 198.117 58.7443 198.343 58.8337C199.314 59.25 201.196 59.5378 203.982 59.7089C206.771 59.8762 209.739 59.9657 212.878 59.9773C216.02 59.989 218.968 59.9657 221.718 59.8995C224.464 59.8373 226.311 59.7517 227.262 59.6467C230.028 59.3939 232.544 58.6665 234.815 57.4684C236.233 56.7216 237.557 55.788 238.781 54.6717C241.967 51.766 244.043 48.3002 245.014 44.2703C245.91 40.6062 245.799 37.117 244.681 33.8146V33.8185ZM214.796 14.6457C215.006 13.8444 215.925 13.4437 217.558 13.4437C219.372 13.4671 220.72 13.8949 221.599 14.7196C222.479 15.5481 222.919 16.4622 222.919 17.4697C222.919 18.9945 222.146 20.2586 220.609 21.2661C219.071 22.2736 217.577 22.5458 216.131 22.0791C215.37 21.8496 214.879 20.8227 214.653 19.0022C214.431 17.1779 214.475 15.7309 214.792 14.6457H214.796ZM221.346 44.8344C218.16 45.7018 216.258 45.4334 215.628 44.0408C214.994 42.7222 214.685 40.9485 214.701 38.7157C214.712 36.4869 215.164 35.1605 216.06 34.7481C217.795 33.9741 219.701 34.1102 221.778 35.1566C223.854 36.2029 225.067 37.6771 225.407 39.5909C225.879 42.2243 224.524 43.9708 221.342 44.8344H221.346Z" fill="url(#paint5_linear_136_40)"/>
<path d="M277.452 56.6244C277.191 57.449 275.126 58.1336 271.259 58.6782C267.391 59.2188 263.052 59.5884 258.238 59.779C253.423 59.9735 248.807 60.0085 244.388 59.8762C240.184 59.7518 237.37 59.4328 235.952 58.9077C237.41 58.1103 238.773 57.1378 240.033 55.9825C243.473 52.8435 245.747 49.0393 246.797 44.6866C247.768 40.7073 247.646 36.8603 246.421 33.2428C245.323 29.9987 243.211 27.2681 240.128 25.1053C242.26 21.0522 242.565 16.7073 241.032 12.1718C239.653 8.0836 237.153 4.88618 233.566 2.63399C233.749 2.37726 233.947 2.17888 234.165 2.05052C234.823 1.66154 237.137 1.33091 241.111 1.04306C245.082 0.759108 249.369 0.584069 253.974 0.521832C258.578 0.455705 262.838 0.5335 266.757 0.751328C270.676 0.969157 272.927 1.36592 273.505 1.93383C274.215 2.50174 274.615 4.74226 274.706 8.6515C274.797 12.5607 274.555 15.5131 273.977 17.5008C273.688 18.4304 271.837 19.0061 268.433 19.224C265.029 19.4418 261.051 19.6324 256.498 19.7841C256.498 20.0953 256.514 20.457 256.538 20.8694C256.565 21.2856 256.589 21.6434 256.617 21.9546C259.589 22.0091 262.01 22.2269 263.876 22.6159C264.324 22.7442 264.768 23.5144 265.2 24.9186C265.632 26.3267 265.933 27.8632 266.103 29.528C266.274 31.1929 266.27 32.7371 266.083 34.1569C265.897 35.5767 265.438 36.3352 264.701 36.4402C264.173 36.5919 263.222 36.7281 261.839 36.8447C260.46 36.9614 258.927 37.047 257.243 37.0976V39.3809C261.847 39.3303 266.004 39.202 269.713 38.9919C273.418 38.7857 275.606 39.0308 276.263 39.7271C276.973 40.295 277.492 42.7611 277.821 47.1255C278.15 51.4898 278.027 54.6522 277.448 56.6127L277.452 56.6244Z" fill="#ED1E79"/>
<path d="M277.452 56.6244C277.191 57.449 275.126 58.1336 271.259 58.6782C267.391 59.2188 263.052 59.5884 258.238 59.779C253.423 59.9735 248.807 60.0085 244.388 59.8762C240.184 59.7518 237.37 59.4328 235.952 58.9077C237.41 58.1103 238.773 57.1378 240.033 55.9825C243.473 52.8435 245.747 49.0393 246.797 44.6866C247.768 40.7073 247.646 36.8603 246.421 33.2428C245.323 29.9987 243.211 27.2681 240.128 25.1053C242.26 21.0522 242.565 16.7073 241.032 12.1718C239.653 8.0836 237.153 4.88618 233.566 2.63399C233.749 2.37726 233.947 2.17888 234.165 2.05052C234.823 1.66154 237.137 1.33091 241.111 1.04306C245.082 0.759108 249.369 0.584069 253.974 0.521832C258.578 0.455705 262.838 0.5335 266.757 0.751328C270.676 0.969157 272.927 1.36592 273.505 1.93383C274.215 2.50174 274.615 4.74226 274.706 8.6515C274.797 12.5607 274.555 15.5131 273.977 17.5008C273.688 18.4304 271.837 19.0061 268.433 19.224C265.029 19.4418 261.051 19.6324 256.498 19.7841C256.498 20.0953 256.514 20.457 256.538 20.8694C256.565 21.2856 256.589 21.6434 256.617 21.9546C259.589 22.0091 262.01 22.2269 263.876 22.6159C264.324 22.7442 264.768 23.5144 265.2 24.9186C265.632 26.3267 265.933 27.8632 266.103 29.528C266.274 31.1929 266.27 32.7371 266.083 34.1569C265.897 35.5767 265.438 36.3352 264.701 36.4402C264.173 36.5919 263.222 36.7281 261.839 36.8447C260.46 36.9614 258.927 37.047 257.243 37.0976V39.3809C261.847 39.3303 266.004 39.202 269.713 38.9919C273.418 38.7857 275.606 39.0308 276.263 39.7271C276.973 40.295 277.492 42.7611 277.821 47.1255C278.15 51.4898 278.027 54.6522 277.448 56.6127L277.452 56.6244Z" fill="url(#paint6_linear_136_40)"/>
<defs>
<linearGradient id="paint0_linear_136_40" x1="-4.02122e-09" y1="29.6104" x2="283.124" y2="27.9763" gradientUnits="userSpaceOnUse">
<stop stop-color="#F3C270"/>
<stop offset="0.446755" stop-color="#F04769"/>
<stop offset="1" stop-color="#F98E75"/>
</linearGradient>
<linearGradient id="paint1_linear_136_40" x1="-4.02122e-09" y1="29.6104" x2="283.124" y2="27.9763" gradientUnits="userSpaceOnUse">
<stop stop-color="#F3C270"/>
<stop offset="0.446755" stop-color="#F04769"/>
<stop offset="1" stop-color="#F98E75"/>
</linearGradient>
<linearGradient id="paint2_linear_136_40" x1="-4.02122e-09" y1="29.6104" x2="283.124" y2="27.9763" gradientUnits="userSpaceOnUse">
<stop stop-color="#F3C270"/>
<stop offset="0.446755" stop-color="#F04769"/>
<stop offset="1" stop-color="#F98E75"/>
</linearGradient>
<linearGradient id="paint3_linear_136_40" x1="-4.02122e-09" y1="29.6104" x2="283.124" y2="27.9763" gradientUnits="userSpaceOnUse">
<stop stop-color="#F3C270"/>
<stop offset="0.446755" stop-color="#F04769"/>
<stop offset="1" stop-color="#F98E75"/>
</linearGradient>
<linearGradient id="paint4_linear_136_40" x1="-4.02122e-09" y1="29.6104" x2="283.124" y2="27.9763" gradientUnits="userSpaceOnUse">
<stop stop-color="#F3C270"/>
<stop offset="0.446755" stop-color="#F04769"/>
<stop offset="1" stop-color="#F98E75"/>
</linearGradient>
<linearGradient id="paint5_linear_136_40" x1="-4.02122e-09" y1="29.6104" x2="283.124" y2="27.9763" gradientUnits="userSpaceOnUse">
<stop stop-color="#F3C270"/>
<stop offset="0.446755" stop-color="#F04769"/>
<stop offset="1" stop-color="#F98E75"/>
</linearGradient>
<linearGradient id="paint6_linear_136_40" x1="-4.02122e-09" y1="29.6104" x2="283.124" y2="27.9763" gradientUnits="userSpaceOnUse">
<stop stop-color="#F3C270"/>
<stop offset="0.446755" stop-color="#F04769"/>
<stop offset="1" stop-color="#F98E75"/>
</linearGradient>
</defs>
</svg>
