<svg preserveAspectRatio="none" width="100%" height="100%" overflow="visible" style="display: block;" viewBox="0 0 53 53" fill="none" xmlns="http://www.w3.org/2000/svg">
<g id="Icon">
<circle id="Ellipse 1" cx="26.5" cy="26.5" r="26.5" fill="var(--fill-0, #F14D62)"/>
<path id="Arrow 1" d="M13.0001 25.5C12.1717 25.5 11.5001 26.1716 11.5001 27C11.5001 27.8284 12.1717 28.5 13.0001 28.5V27V25.5ZM41.0608 28.0607C41.6465 27.4749 41.6465 26.5251 41.0608 25.9393L31.5148 16.3934C30.929 15.8076 29.9793 15.8076 29.3935 16.3934C28.8077 16.9792 28.8077 17.9289 29.3935 18.5147L37.8788 27L29.3935 35.4853C28.8077 36.0711 28.8077 37.0208 29.3935 37.6066C29.9793 38.1924 30.929 38.1924 31.5148 37.6066L41.0608 28.0607ZM13.0001 27V28.5H40.0001V27V25.5H13.0001V27Z" fill="var(--stroke-0, #FAFAFA)"/>
</g>
</svg>
