<svg preserveAspectRatio="none" width="100%" height="100%" overflow="visible" style="display: block;" viewBox="0 0 130 30" fill="none" xmlns="http://www.w3.org/2000/svg">
<g id="Social icons">
<path id="Vector" d="M30 15C30 18.9782 28.4196 22.7936 25.6066 25.6066C22.7936 28.4196 18.9782 30 15 30C11.0218 30 7.20644 28.4196 4.3934 25.6066C1.58035 22.7936 0 18.9782 0 15C0 11.0218 1.58035 7.20644 4.3934 4.3934C7.20644 1.58035 11.0218 0 15 0C18.9782 0 22.7936 1.58035 25.6066 4.3934C28.4196 7.20644 30 11.0218 30 15ZM15.5381 11.0738C14.0781 11.6813 11.1619 12.9375 6.78938 14.8425C6.08063 15.1237 5.70875 15.4 5.67375 15.6712C5.6175 16.1269 6.18938 16.3069 6.9675 16.5525L7.29563 16.6556C8.06063 16.905 9.09187 17.1956 9.62625 17.2069C10.1137 17.2194 10.6562 17.0194 11.2537 16.6069C15.34 13.8494 17.4488 12.4556 17.58 12.4256C17.6738 12.4031 17.805 12.3769 17.8912 12.4556C17.9775 12.5344 17.97 12.6806 17.9606 12.72C17.9044 12.9619 15.66 15.0469 14.4994 16.1269C14.1375 16.4644 13.8806 16.7025 13.8281 16.7569C13.7126 16.8751 13.595 16.9913 13.4756 17.1056C12.7631 17.7919 12.2306 18.3056 13.5038 19.1456C14.1169 19.5506 14.6081 19.8825 15.0975 20.2162C15.63 20.58 16.1625 20.9419 16.8525 21.3956C17.0275 21.5106 17.1963 21.6275 17.3588 21.7462C17.9794 22.1887 18.54 22.5863 19.2281 22.5225C19.6294 22.485 20.0438 22.11 20.2538 20.985C20.7506 18.3281 21.7275 12.5737 21.9525 10.2019C21.9666 10.0047 21.9585 9.80658 21.9281 9.61125C21.9099 9.45377 21.8337 9.3087 21.7144 9.20437C21.5435 9.08707 21.3403 9.0261 21.1331 9.03C20.5706 9.03937 19.7025 9.34125 15.5381 11.0738Z" fill="var(--fill-0, #FAFAFA)"/>
<path id="Vector_2" fill-rule="evenodd" clip-rule="evenodd" d="M65 30C73.2843 30 80 23.2843 80 15C80 6.7157 73.2843 0 65 0C56.7157 0 50 6.7157 50 15C50 23.2843 56.7157 30 65 30ZM67.0677 6.14052C66.5061 6.14141 65.9433 6.1423 65.378 6.15116C65.3645 8.00686 65.365 9.86257 65.3657 11.7201C65.366 12.8348 65.3663 13.9501 65.3636 15.0663C65.3617 15.4143 65.3623 15.7619 65.3629 16.1091C65.3646 17.0811 65.3663 18.0513 65.3132 19.0254C65.3065 19.2966 65.1722 19.5351 65.0424 19.7655C65.0344 19.7798 65.0263 19.7941 65.0183 19.8083C64.6011 20.51 63.8313 20.9902 63.0256 20.9975C61.817 21.1083 60.6803 20.089 60.5077 18.8777C60.5066 18.8157 60.5046 18.7534 60.5026 18.691C60.4918 18.3512 60.4808 18.0067 60.6084 17.6885C60.7883 17.1641 61.1336 16.6987 61.5868 16.3959C62.2127 15.9527 63.0472 15.8862 63.7594 16.1226C63.7594 15.6541 63.7673 15.1856 63.7752 14.7171C63.7858 14.0924 63.7964 13.4678 63.7881 12.8431C62.227 12.5403 60.5581 13.0499 59.3639 14.1136C58.3135 15.0295 57.6373 16.3737 57.5078 17.7771C57.4935 18.139 57.5007 18.5084 57.5151 18.8777C57.6661 20.606 58.6877 22.2163 60.1408 23.0952C61.0185 23.627 62.0472 23.9151 63.076 23.856C64.7522 23.8265 66.3852 22.9032 67.3276 21.485C67.9103 20.6356 68.2412 19.609 68.2988 18.5748C68.3122 17.2315 68.3117 15.8853 68.3111 14.538C68.3108 13.7296 68.3104 12.9207 68.3132 12.1119C68.6872 12.363 69.0685 12.6067 69.4785 12.7987C70.4209 13.2567 71.464 13.4783 72.5 13.5153V10.5386C71.3921 10.413 70.2555 10.0363 69.4497 9.21641C68.644 8.41875 68.2484 7.26648 68.1908 6.13636C67.8166 6.1393 67.4424 6.13991 67.0677 6.14052Z" fill="var(--fill-0, #FAFAFA)"/>
<path id="Vector_3" d="M115 0C110.929 0 110.418 0.01875 108.818 0.09C107.219 0.165 106.129 0.41625 105.175 0.7875C104.173 1.16311 103.267 1.75387 102.518 2.51813C101.754 3.26651 101.163 4.17346 100.787 5.175C100.416 6.1275 100.163 7.21875 100.09 8.8125C100.019 10.4156 100 10.9256 100 15.0019C100 19.0744 100.019 19.5844 100.09 21.1838C100.165 22.7813 100.416 23.8706 100.787 24.825C101.172 25.8112 101.684 26.6475 102.518 27.4819C103.351 28.3162 104.187 28.83 105.173 29.2125C106.129 29.5837 107.217 29.8369 108.814 29.91C110.416 29.9812 110.926 30 115 30C119.074 30 119.583 29.9812 121.184 29.91C122.779 29.835 123.873 29.5837 124.827 29.2125C125.828 28.8366 126.734 28.2459 127.482 27.4819C128.316 26.6475 128.828 25.8112 129.212 24.825C129.582 23.8706 129.835 22.7813 129.91 21.1838C129.981 19.5844 130 19.0744 130 15C130 10.9256 129.981 10.4156 129.91 8.81438C129.835 7.21875 129.582 6.1275 129.212 5.175C128.837 4.17346 128.246 3.26651 127.482 2.51813C126.733 1.75387 125.827 1.16311 124.825 0.7875C123.869 0.41625 122.777 0.163125 121.182 0.09C119.581 0.01875 119.073 0 114.996 0H115ZM113.656 2.70375H115.002C119.007 2.70375 119.481 2.71688 121.062 2.79C122.524 2.85563 123.319 3.10125 123.848 3.30563C124.547 3.5775 125.048 3.90375 125.573 4.42875C126.098 4.95375 126.423 5.4525 126.694 6.15375C126.901 6.68063 127.144 7.47563 127.21 8.93813C127.283 10.5188 127.298 10.9931 127.298 14.9963C127.298 18.9994 127.283 19.4756 127.21 21.0562C127.144 22.5187 126.899 23.3119 126.694 23.8406C126.452 24.4911 126.069 25.0796 125.571 25.5637C125.046 26.0887 124.548 26.4131 123.846 26.685C123.321 26.8913 122.526 27.135 121.062 27.2025C119.481 27.2738 119.007 27.2906 115.002 27.2906C110.997 27.2906 110.521 27.2738 108.94 27.2025C107.478 27.135 106.684 26.8913 106.156 26.685C105.505 26.4436 104.915 26.0606 104.431 25.5637C103.932 25.0793 103.548 24.49 103.306 23.8387C103.101 23.3119 102.856 22.5169 102.79 21.0544C102.719 19.4738 102.704 18.9994 102.704 14.9925C102.704 10.9856 102.719 10.515 102.79 8.93437C102.858 7.47187 103.101 6.67688 103.308 6.14813C103.579 5.44875 103.906 4.94812 104.431 4.42312C104.956 3.89812 105.454 3.57375 106.156 3.30188C106.684 3.09563 107.478 2.85188 108.94 2.78438C110.324 2.72063 110.86 2.70188 113.656 2.7V2.70375ZM123.008 5.19375C122.772 5.19375 122.538 5.24031 122.319 5.33077C122.101 5.42123 121.902 5.55381 121.735 5.72096C121.568 5.8881 121.436 6.08653 121.345 6.30492C121.255 6.52331 121.208 6.75737 121.208 6.99375C121.208 7.23013 121.255 7.46419 121.345 7.68258C121.436 7.90097 121.568 8.0994 121.735 8.26654C121.902 8.43369 122.101 8.56627 122.319 8.65673C122.538 8.74719 122.772 8.79375 123.008 8.79375C123.486 8.79375 123.943 8.60411 124.281 8.26654C124.618 7.92898 124.808 7.47114 124.808 6.99375C124.808 6.51636 124.618 6.05852 124.281 5.72096C123.943 5.38339 123.486 5.19375 123.008 5.19375ZM115.002 7.2975C113.98 7.28156 112.965 7.46904 112.017 7.84901C111.068 8.22899 110.205 8.79388 109.477 9.51079C108.748 10.2277 108.17 11.0823 107.775 12.0249C107.381 12.9674 107.177 13.9791 107.177 15.0009C107.177 16.0228 107.381 17.0345 107.775 17.977C108.17 18.9196 108.748 19.7742 109.477 20.4911C110.205 21.208 111.068 21.7729 112.017 22.1529C112.965 22.5328 113.98 22.7203 115.002 22.7044C117.024 22.6728 118.953 21.8473 120.372 20.4061C121.791 18.9649 122.586 17.0234 122.586 15.0009C122.586 12.9784 121.791 11.037 120.372 9.59578C118.953 8.15454 117.024 7.32905 115.002 7.2975ZM115.002 9.99938C115.659 9.99938 116.309 10.1287 116.916 10.38C117.522 10.6313 118.074 10.9997 118.538 11.464C119.002 11.9284 119.371 12.4796 119.622 13.0863C119.873 13.693 120.003 14.3433 120.003 15C120.003 15.6567 119.873 16.307 119.622 16.9137C119.371 17.5204 119.002 18.0716 118.538 18.536C118.074 19.0003 117.522 19.3687 116.916 19.62C116.309 19.8713 115.659 20.0006 115.002 20.0006C113.676 20.0006 112.404 19.4738 111.466 18.536C110.528 17.5982 110.001 16.3262 110.001 15C110.001 13.6738 110.528 12.4018 111.466 11.464C112.404 10.5262 113.676 9.99938 115.002 9.99938Z" fill="var(--fill-0, #FAFAFA)"/>
</g>
</svg>
