<svg preserveAspectRatio="none" width="100%" height="100%" overflow="visible" style="display: block;" viewBox="0 0 16.7751 16.0395" fill="none" xmlns="http://www.w3.org/2000/svg">
<path id="Star 4" d="M7.56457 0.597924C7.82361 -0.199308 8.95148 -0.199308 9.21052 0.597923L10.5973 4.86608C10.7132 5.22262 11.0454 5.46401 11.4203 5.46401H15.9081C16.7464 5.46401 17.0949 6.53668 16.4167 7.02939L12.786 9.66726C12.4827 9.88761 12.3558 10.2782 12.4717 10.6347L13.8585 14.9029C14.1175 15.7001 13.205 16.3631 12.5269 15.8703L8.89617 13.2325C8.59288 13.0121 8.1822 13.0121 7.87892 13.2325L4.24821 15.8703C3.57004 16.3631 2.65757 15.7001 2.91661 14.9029L4.30342 10.6347C4.41926 10.2782 4.29236 9.88761 3.98907 9.66726L0.358358 7.02939C-0.319808 6.53668 0.028723 5.46401 0.866982 5.46401H5.35479C5.72967 5.46401 6.06192 5.22262 6.17776 4.86608L7.56457 0.597924Z" fill="var(--fill-0, #FFC400)"/>
</svg>
