<svg preserveAspectRatio="none" width="100%" height="100%" overflow="visible" style="display: block;" viewBox="0 0 72 70" fill="none" xmlns="http://www.w3.org/2000/svg">
<g id="Frame 691">
<rect width="72" height="70" rx="10" fill="var(--fill-0, #F3C270)" fill-opacity="0.25"/>
<path id="Vector" d="M24.1983 26.6286C19.3281 27.7306 16.893 28.2815 16.3136 30.1445C15.7343 32.0075 17.3944 33.9488 20.7146 37.8312L21.5735 38.8357C22.517 39.9389 22.9887 40.4906 23.201 41.1731C23.4132 41.8556 23.3419 42.5916 23.1992 44.0637L23.0694 45.4038C22.5674 50.5838 22.3164 53.1739 23.8332 54.3253C25.3499 55.4766 27.6299 54.4268 32.1899 52.3274L33.3695 51.7841C34.6653 51.1875 35.3131 50.8892 36 50.8892C36.6868 50.8892 37.3347 51.1875 38.6304 51.7841L39.8101 52.3274C44.37 54.4268 46.65 55.4766 48.1669 54.3253C49.6836 53.1739 49.4325 50.5838 48.9306 45.4038M51.2854 37.8312C54.6057 33.9488 56.2657 32.0075 55.6864 30.1445C55.107 28.2815 52.6718 27.7306 47.8018 26.6286L46.5417 26.3436C45.1577 26.0304 44.4659 25.8739 43.9103 25.4521C43.3545 25.0303 42.9983 24.391 42.2855 23.1125L41.6367 21.9486C39.1288 17.4495 37.8748 15.2 36 15.2C34.1251 15.2 32.8712 17.4495 30.3632 21.9486" stroke="var(--stroke-0, #F3C270)" stroke-width="4" stroke-linecap="round"/>
</g>
</svg>
