<svg preserveAspectRatio="none" width="100%" height="100%" overflow="visible" style="display: block;" viewBox="0 0 72 70" fill="none" xmlns="http://www.w3.org/2000/svg">
<g id="Frame 691">
<rect width="72" height="70" rx="10" fill="var(--fill-0, #F98E75)" fill-opacity="0.2"/>
<path id="Vector" d="M44.7163 53.2935C44.7163 54.1255 45.3908 54.8 46.2228 54.8C47.0549 54.8 47.7293 54.1255 47.7293 53.2935H44.7163ZM21.0424 53.2935C21.0424 54.1255 21.7169 54.8 22.5489 54.8C23.3809 54.8 24.0554 54.1255 24.0554 53.2935H21.0424ZM24.0554 46.837C24.0554 46.0049 23.3809 45.3304 22.5489 45.3304C21.7169 45.3304 21.0424 46.0049 21.0424 46.837H24.0554ZM37.1837 53.2935C37.1837 54.1255 37.8582 54.8 38.6902 54.8C39.5222 54.8 40.1967 54.1255 40.1967 53.2935H37.1837ZM40.1967 46.837C40.1967 46.0049 39.5222 45.3304 38.6902 45.3304C37.8582 45.3304 37.1837 46.0049 37.1837 46.837H40.1967ZM17.5989 53.2935V50.0652H14.5859V53.2935H17.5989ZM27.9293 39.7348H34.3859V36.7217H27.9293V39.7348ZM44.7163 50.0652V53.2935H47.7293V50.0652H44.7163ZM34.3859 39.7348C40.0913 39.7348 44.7163 44.3598 44.7163 50.0652H47.7293C47.7293 42.6957 41.7553 36.7217 34.3859 36.7217V39.7348ZM17.5989 50.0652C17.5989 44.3598 22.224 39.7348 27.9293 39.7348V36.7217C20.5599 36.7217 14.5859 42.6957 14.5859 50.0652H17.5989ZM34.3859 39.7348H44.0707V36.7217H34.3859V39.7348ZM54.4011 50.0652V53.2935H57.4141V50.0652H54.4011ZM44.0707 39.7348C49.7761 39.7348 54.4011 44.3598 54.4011 50.0652H57.4141C57.4141 42.6957 51.4401 36.7217 44.0707 36.7217V39.7348ZM24.0554 53.2935V46.837H21.0424V53.2935H24.0554ZM40.1967 53.2935V46.837H37.1837V53.2935H40.1967ZM31.1576 32.4174C27.2352 32.4174 24.0554 29.2377 24.0554 25.3152H21.0424C21.0424 30.9018 25.5711 35.4304 31.1576 35.4304V32.4174ZM24.0554 25.3152C24.0554 21.3928 27.2352 18.213 31.1576 18.213V15.2C25.5711 15.2 21.0424 19.7288 21.0424 25.3152H24.0554ZM31.1576 18.213C35.0799 18.213 38.2598 21.3928 38.2598 25.3152H41.2728C41.2728 19.7288 36.744 15.2 31.1576 15.2V18.213ZM38.2598 25.3152C38.2598 27.7604 37.0253 29.9179 35.1389 31.1978L36.8303 33.691C39.5083 31.8744 41.2728 28.8012 41.2728 25.3152H38.2598ZM35.1389 31.1978C34.0039 31.9676 32.6355 32.4174 31.1576 32.4174V35.4304C33.2575 35.4304 35.2121 34.7889 36.8303 33.691L35.1389 31.1978ZM40.8424 18.213C44.7647 18.213 47.9446 21.3928 47.9446 25.3152H50.9576C50.9576 19.7288 46.4288 15.2 40.8424 15.2V18.213ZM47.9446 25.3152C47.9446 27.7604 46.7101 29.9179 44.8237 31.1978L46.5151 33.691C49.193 31.8744 50.9576 28.8012 50.9576 25.3152H47.9446ZM44.8237 31.1978C43.6886 31.9676 42.3203 32.4174 40.8424 32.4174V35.4304C42.9423 35.4304 44.8969 34.7889 46.5151 33.691L44.8237 31.1978ZM36.4042 19.7701C37.6204 18.7952 39.1613 18.213 40.8424 18.213V15.2C38.4518 15.2 36.2512 16.0312 34.5197 17.4192L36.4042 19.7701ZM40.8424 32.4174C39.3645 32.4174 37.9961 31.9676 36.8611 31.1978L35.1697 33.691C36.7879 34.7889 38.7425 35.4304 40.8424 35.4304V32.4174Z" fill="var(--fill-0, #F98E75)"/>
</g>
</svg>
