<svg preserveAspectRatio="none" width="100%" height="100%" overflow="visible" style="display: block;" viewBox="0 0 72 70" fill="none" xmlns="http://www.w3.org/2000/svg">
<g id="Frame 691">
<rect width="72" height="70" rx="10" fill="var(--fill-0, #FBCDD4)"/>
<g id="Vector">
<path fill-rule="evenodd" clip-rule="evenodd" d="M19.6017 29.1504C18.8908 28.8013 18.8813 27.7155 19.5858 27.3518L25.1959 24.4563C25.6752 24.2089 25.6561 23.4658 25.1648 23.2476L22.3724 22.007C21.826 21.7643 21.2111 21.7753 20.6725 22.0374L12.6055 25.9635C11.5065 26.4983 10.8 27.6784 10.8 28.9792V46.2331C10.8 47.3294 11.6237 48.2181 12.6398 48.2181H13.0625C14.0786 48.2181 14.9023 47.3294 14.9023 46.2331V32.74C14.9023 32.2586 15.3636 31.9383 15.7697 32.1378L18.2866 33.3739C18.7241 33.5888 19.0049 34.0597 19.0049 34.5783V46.3732C19.0049 47.0346 19.3701 47.6324 19.9334 47.8933L34.3258 54.5586C35.0208 54.8805 35.8079 54.8805 36.5029 54.5586L50.8953 47.8933C51.4586 47.6324 51.8237 47.0346 51.8237 46.3732V35.0038C51.8237 34.2258 52.2449 33.5196 52.9012 33.1972L60.4817 29.4738C61.4394 29.0033 61.4394 27.5355 60.4817 27.065L37.1736 15.6163C36.0547 15.0667 34.7711 15.061 33.6481 15.6008L26.5885 18.9935C26.096 19.2302 26.1059 19.988 26.6044 20.2096L29.292 21.4044C30.0608 21.7462 30.9253 21.7365 31.6873 21.3774L33.9103 20.3301C34.8674 19.8791 35.957 19.8882 36.9075 20.3551L51.794 27.6672C52.2729 27.9024 52.2729 28.6364 51.794 28.8716L36.9387 36.1685C35.9701 36.6442 34.858 36.6442 33.8894 36.1685L19.6017 29.1504ZM47.7214 36.77C47.7214 36.2886 47.2601 35.9683 46.854 36.1678L37.1929 40.9132C36.0628 41.4683 34.7654 41.4683 33.6353 40.9132L23.9746 36.1678C23.5686 35.9683 23.1073 36.2886 23.1073 36.77V43.45C23.1073 44.1114 23.4724 44.7092 24.0357 44.9701L34.3258 49.7355C35.0209 50.0573 35.8079 50.0573 36.5029 49.7355L46.7929 44.9701C47.3562 44.7092 47.7214 44.1114 47.7214 43.4501V36.77Z" fill="var(--fill-0, #F14D62)"/>
<path fill-rule="evenodd" clip-rule="evenodd" d="M12.0265 53.5585C11.3491 53.5585 10.8 52.9661 10.8 52.2352V50.4488C10.8 49.718 11.3491 49.1255 12.0265 49.1255H13.6758C14.3532 49.1255 14.9023 49.718 14.9023 50.4488V52.2352C14.9023 52.9661 14.3532 53.5585 13.6758 53.5585H12.0265Z" fill="var(--fill-0, #F14D62)"/>
</g>
</g>
</svg>
