<svg width="30" height="30" viewBox="0 0 30 30" fill="none" xmlns="http://www.w3.org/2000/svg">
<path fill-rule="evenodd" clip-rule="evenodd" d="M15 30C23.2843 30 30 23.2843 30 15C30 6.7157 23.2843 0 15 0C6.7157 0 0 6.7157 0 15C0 23.2843 6.7157 30 15 30ZM17.0677 6.14052C16.5061 6.14141 15.9433 6.1423 15.378 6.15116C15.3645 8.00686 15.365 9.86257 15.3657 11.7201C15.366 12.8348 15.3663 13.9501 15.3636 15.0663C15.3617 15.4143 15.3623 15.7619 15.3629 16.1091C15.3646 17.0811 15.3663 18.0513 15.3132 19.0254C15.3065 19.2966 15.1722 19.5351 15.0424 19.7655C15.0344 19.7798 15.0263 19.7941 15.0183 19.8083C14.6011 20.51 13.8313 20.9902 13.0256 20.9975C11.817 21.1083 10.6803 20.089 10.5077 18.8777C10.5066 18.8157 10.5046 18.7534 10.5026 18.691C10.4918 18.3512 10.4808 18.0067 10.6084 17.6885C10.7883 17.1641 11.1336 16.6987 11.5868 16.3959C12.2127 15.9527 13.0472 15.8862 13.7594 16.1226C13.7594 15.6541 13.7673 15.1856 13.7752 14.7171C13.7858 14.0924 13.7964 13.4678 13.7881 12.8431C12.227 12.5403 10.5581 13.0499 9.36389 14.1136C8.31355 15.0295 7.63732 16.3737 7.50784 17.7771C7.49345 18.139 7.50068 18.5084 7.51507 18.8777C7.66609 20.606 8.68766 22.2163 10.1408 23.0952C11.0185 23.627 12.0472 23.9151 13.076 23.856C14.7522 23.8265 16.3852 22.9032 17.3276 21.485C17.9103 20.6356 18.2412 19.609 18.2988 18.5748C18.3122 17.2315 18.3117 15.8853 18.3111 14.538C18.3108 13.7296 18.3104 12.9207 18.3132 12.1119C18.6872 12.363 19.0685 12.6067 19.4785 12.7987C20.4209 13.2567 21.464 13.4783 22.5 13.5153V10.5386C21.3921 10.413 20.2555 10.0363 19.4497 9.21641C18.644 8.41875 18.2484 7.26648 18.1908 6.13636C17.8166 6.1393 17.4424 6.13991 17.0677 6.14052Z" fill="#FAFAFA"/>
</svg>
