<svg preserveAspectRatio="none" width="100%" height="100%" overflow="visible" style="display: block;" viewBox="0 0 36 36" fill="none" xmlns="http://www.w3.org/2000/svg">
<g id="devices-svgrepo-com 1">
<path id="Vector" d="M33.0001 15C33.0001 9.34314 33.0001 6.51472 31.2427 4.75735C29.4855 3 26.6569 3 21.0001 3C15.3433 3 12.5149 3 10.7575 4.75735C9.34288 6.17199 9.06699 8.28064 9.01318 12M33.0001 21C33.0001 26.6568 33.0001 29.4853 31.2427 31.2426C29.4855 33 26.6569 33 21.0001 33H18" stroke="var(--stroke-0, #F14D62)" stroke-width="2.25" stroke-linecap="round"/>
<path id="Vector_2" d="M3.00009 21.75C3.00009 19.6432 3.00009 18.5899 3.50568 17.8333C3.72456 17.5057 4.00581 17.2245 4.33338 17.0056C5.09006 16.5 6.1434 16.5 8.25009 16.5C10.3568 16.5 11.4101 16.5 12.1668 17.0056C12.4944 17.2245 12.7756 17.5057 12.9945 17.8333C13.5001 18.5899 13.5001 19.6432 13.5001 21.75V27.75C13.5001 29.8567 13.5001 30.91 12.9945 31.6666C12.7756 31.9942 12.4944 32.2755 12.1668 32.4943C11.4101 33 10.3568 33 8.25009 33C6.1434 33 5.09006 33 4.33338 32.4943C4.00581 32.2755 3.72456 31.9942 3.50568 31.6666C3.00009 30.91 3.00009 29.8567 3.00009 27.75V21.75Z" stroke="var(--stroke-0, #F14D62)" stroke-width="2.25"/>
<path id="Vector_3" d="M25.5 28.5H18" stroke="var(--stroke-0, #F14D62)" stroke-width="2.25" stroke-linecap="round"/>
</g>
</svg>
