<svg preserveAspectRatio="none" width="100%" height="100%" overflow="visible" style="display: block;" viewBox="0 0 1240 485" fill="none" xmlns="http://www.w3.org/2000/svg">
<path id="Union" d="M1240 287C1240 314.614 1217.61 337 1190 337H727C699.386 337 677 359.386 677 387V435C677 462.614 654.614 485 627 485H50C22.3857 485 0 462.614 0 435V289C0 261.386 22.3858 239 50 239H613C640.614 239 663 216.614 663 189V50C663 22.3858 685.386 0 713 0H1190C1217.61 0 1240 22.3858 1240 50V287Z" fill="var(--fill-0, #FDE699)" fill-opacity="0.6"/>
</svg>
