<svg preserveAspectRatio="none" width="100%" height="100%" overflow="visible" style="display: block;" viewBox="0 0 36 36" fill="none" xmlns="http://www.w3.org/2000/svg">
<g id="calendar-minimalistic-svgrepo-com 1">
<path id="Vector" d="M21 33H15C9.34314 33 6.51472 33 4.75735 31.2426C3 29.4853 3 26.6568 3 21V18C3 12.3431 3 9.51472 4.75735 7.75735C6.51472 6 9.34314 6 15 6H21C26.6568 6 29.4853 6 31.2426 7.75735C33 9.51472 33 12.3431 33 18V21C33 26.6568 33 29.4853 31.2426 31.2426C30.2628 32.2224 28.9501 32.6559 27 32.8478" stroke="var(--stroke-0, #F14D62)" stroke-width="2.325" stroke-linecap="round"/>
<path id="Vector_2" d="M10.5 6V3.75" stroke="var(--stroke-0, #F14D62)" stroke-width="2.325" stroke-linecap="round"/>
<path id="Vector_3" d="M25.5 6V3.75" stroke="var(--stroke-0, #F14D62)" stroke-width="2.325" stroke-linecap="round"/>
<path id="Vector_4" d="M32.25 13.5H24.9375H16.125M3 13.5H8.8125" stroke="var(--stroke-0, #F14D62)" stroke-width="2.325" stroke-linecap="round"/>
</g>
</svg>
