<svg preserveAspectRatio="none" width="100%" height="100%" overflow="visible" style="display: block;" viewBox="0 0 36 36" fill="none" xmlns="http://www.w3.org/2000/svg">
<g id="practical-training-svgrepo-com 1" clip-path="url(#clip0_0_37)">
<path id="Vector" d="M34.5 16.5C34.4015 16.5 34.304 16.5194 34.213 16.5571C34.122 16.5948 34.0393 16.65 33.9697 16.7197C33.9 16.7893 33.8448 16.872 33.8071 16.963C33.7694 17.054 33.75 17.1515 33.75 17.25V20.25C33.75 20.644 33.6724 21.0341 33.5216 21.3981C33.3709 21.762 33.1499 22.0927 32.8713 22.3713C32.5927 22.6499 32.262 22.8709 31.8981 23.0216C31.5341 23.1724 31.144 23.25 30.75 23.25H5.25C4.45435 23.25 3.69129 22.9339 3.12868 22.3713C2.56607 21.8087 2.25 21.0457 2.25 20.25V5.25C2.25 4.45435 2.56607 3.69129 3.12868 3.12868C3.69129 2.56607 4.45435 2.25 5.25 2.25H30.75C31.5457 2.25 32.3087 2.56607 32.8713 3.12868C33.4339 3.69129 33.75 4.45435 33.75 5.25C33.75 5.44891 33.829 5.63968 33.9697 5.78033C34.1103 5.92098 34.3011 6 34.5 6C34.6989 6 34.8897 5.92098 35.0303 5.78033C35.171 5.63968 35.25 5.44891 35.25 5.25C35.25 4.05653 34.7759 2.91193 33.932 2.06802C33.0881 1.22411 31.9435 0.75 30.75 0.75H5.25C4.05653 0.75 2.91193 1.22411 2.06802 2.06802C1.22411 2.91193 0.75 4.05653 0.75 5.25V20.25C0.75 21.4435 1.22411 22.5881 2.06802 23.432C2.91193 24.2759 4.05653 24.75 5.25 24.75H30.75C31.9435 24.75 33.0881 24.2759 33.932 23.432C34.7759 22.5881 35.25 21.4435 35.25 20.25V17.25C35.25 17.1515 35.2306 17.054 35.1929 16.963C35.1552 16.872 35.1 16.7893 35.0303 16.7197C34.9607 16.65 34.878 16.5948 34.787 16.5571C34.696 16.5194 34.5985 16.5 34.5 16.5Z" fill="var(--fill-0, #F14D62)" stroke="var(--stroke-0, #F14D62)" stroke-width="0.5"/>
<path id="Vector_2" d="M34.5 10.5C34.3011 10.5 34.1103 10.579 33.9697 10.7197C33.829 10.8603 33.75 11.0511 33.75 11.25V14.25C33.75 14.4489 33.829 14.6397 33.9697 14.7803C34.1103 14.921 34.3011 15 34.5 15C34.6989 15 34.8897 14.921 35.0303 14.7803C35.171 14.6397 35.25 14.4489 35.25 14.25V11.25C35.25 11.1515 35.2306 11.054 35.1929 10.963C35.1552 10.872 35.1 10.7893 35.0303 10.7197C34.9607 10.65 34.878 10.5948 34.787 10.5571C34.696 10.5194 34.5985 10.5 34.5 10.5ZM33.9675 7.7175C33.8972 7.78722 33.8414 7.87017 33.8033 7.96157C33.7653 8.05296 33.7456 8.15099 33.7456 8.25C33.7456 8.34901 33.7653 8.44704 33.8033 8.53843C33.8414 8.62983 33.8972 8.71278 33.9675 8.7825C34.0372 8.8528 34.1202 8.90859 34.2116 8.94667C34.303 8.98474 34.401 9.00435 34.5 9.00435C34.599 9.00435 34.697 8.98474 34.7884 8.94667C34.8798 8.90859 34.9628 8.8528 35.0325 8.7825L35.1225 8.6625C35.1522 8.62421 35.175 8.58107 35.19 8.535C35.2171 8.49348 35.2373 8.44791 35.25 8.4C35.254 8.35008 35.254 8.29992 35.25 8.25C35.2509 8.10103 35.2073 7.95518 35.125 7.83104C35.0426 7.7069 34.9252 7.6101 34.7876 7.55297C34.65 7.49585 34.4985 7.48099 34.3525 7.51029C34.2064 7.53959 34.0724 7.61173 33.9675 7.7175ZM31.5 33.75H4.5C4.30109 33.75 4.11032 33.829 3.96967 33.9697C3.82902 34.1103 3.75 34.3011 3.75 34.5C3.75 34.6989 3.82902 34.8897 3.96967 35.0303C4.11032 35.171 4.30109 35.25 4.5 35.25H31.5C31.6989 35.25 31.8897 35.171 32.0303 35.0303C32.171 34.8897 32.25 34.6989 32.25 34.5C32.25 34.3011 32.171 34.1103 32.0303 33.9697C31.8897 33.829 31.6989 33.75 31.5 33.75ZM24 30C24.1989 30 24.3897 29.921 24.5303 29.7803C24.671 29.6397 24.75 29.4489 24.75 29.25C24.75 29.0511 24.671 28.8603 24.5303 28.7197C24.3897 28.579 24.1989 28.5 24 28.5H12C11.8011 28.5 11.6103 28.579 11.4697 28.7197C11.329 28.8603 11.25 29.0511 11.25 29.25C11.25 29.4489 11.329 29.6397 11.4697 29.7803C11.6103 29.921 11.8011 30 12 30H24ZM9 20.25C9 20.4489 9.07902 20.6397 9.21967 20.7803C9.36032 20.921 9.55109 21 9.75 21H18.8475C19.0167 20.999 19.1805 20.9409 19.3125 20.835L24.0375 17.085L24.105 17.0175L24.1575 16.965C24.1969 16.9144 24.2297 16.8589 24.255 16.8L28.1175 7.05C28.1676 6.95795 28.1979 6.85642 28.2064 6.75194C28.2149 6.64747 28.2014 6.54237 28.1668 6.44344C28.1322 6.3445 28.0772 6.25392 28.0054 6.17755C27.9336 6.10117 27.8466 6.04068 27.75 6L22.1775 3.75C22.0859 3.71347 21.988 3.69535 21.8894 3.69669C21.7908 3.69803 21.6935 3.7188 21.6029 3.75781C21.5123 3.79682 21.4304 3.85331 21.3617 3.92404C21.293 3.99476 21.2389 4.07835 21.2025 4.17L17.34 13.92C17.285 14.0216 17.2542 14.1345 17.25 14.25V14.37L18 19.5H9.75C9.55109 19.5 9.36032 19.579 9.21967 19.7197C9.07902 19.8603 9 20.0511 9 20.25ZM18.9225 15.435L22.095 16.695L19.4025 18.84L18.9225 15.435ZM22.2825 5.475L26.4675 7.1325L23.1525 15.5025L18.975 13.845L22.2825 5.475Z" fill="var(--fill-0, #F14D62)" stroke="var(--stroke-0, #F14D62)" stroke-width="0.5"/>
</g>
<defs>
<clipPath id="clip0_0_37">
<rect width="36" height="36" fill="white"/>
</clipPath>
</defs>
</svg>
